<svg width="32" height="32" viewBox="0 0 32 32" fill="none" xmlns="http://www.w3.org/2000/svg">
<circle cx="16" cy="17" r="14" fill="#E0D7D1"/>
<circle cx="16" cy="16" r="14" fill="#C1C500"/>
<ellipse cx="16" cy="15" rx="14" ry="13" fill="#FBFBFB"/>
<ellipse cx="16" cy="15" rx="12" ry="11" fill="#7E9A0F"/>
<circle cx="8.5" cy="15.5" r="1.5" fill="#677E09"/>
<circle cx="16.5" cy="20.5" r="2.5" fill="#677E09"/>
<circle cx="21.5" cy="14.5" r="1.5" fill="#677E09"/>
<circle cx="23" cy="20" r="1" fill="#677E09"/>
<circle cx="11" cy="10" r="2" fill="#677E09"/>
<circle cx="19.5" cy="8.5" r="1.5" fill="#677E09"/>
<circle cx="23" cy="11" r="1" fill="#677E09"/>
<circle cx="25.5" cy="15.5" r="0.5" fill="#677E09"/>
<circle cx="7.5" cy="20.5" r="0.5" fill="#677E09"/>
<circle cx="15.5" cy="24.5" r="0.5" fill="#677E09"/>
<path fill-rule="evenodd" clip-rule="evenodd" d="M16.7413 6C18.5821 6 20.0744 7.49238 20.0744 9.33333V11.3846L20.9126 12.4718C21.1237 12.7457 20.9285 13.1429 20.5826 13.1429H18.7189V15.1667C18.7189 15.6269 18.3458 16 17.8856 16H14.1302C13.67 16 13.2969 15.6269 13.2969 15.1667V13.1429H11.4174C11.0744 13.1429 10.8783 12.7515 11.0836 12.4768L11.9414 11.3288V9.33333C11.9414 7.49238 13.4337 6 15.2746 6H16.7413ZM16.8335 11L19.3333 9.33333V11H16.8335ZM15.1669 11L12.667 9.33333V11H15.1669ZM16.0002 11.8333L15.1669 12.6667H16.8335L16.0002 11.8333Z" fill="#FBFBFB"/>
<path fill-rule="evenodd" clip-rule="evenodd" d="M21.8923 17.5981C21.6162 17.1198 21.0046 16.9559 20.5263 17.232C21.0046 16.9559 21.1684 16.3443 20.8923 15.866C20.6162 15.3877 20.0046 15.2239 19.5263 15.5C19.048 15.7761 18.8841 16.3877 19.1603 16.866L12.232 20.866C11.9559 20.3877 11.3443 20.2239 10.866 20.5C10.3877 20.7761 10.2239 21.3877 10.5 21.866C10.7761 22.3443 11.3877 22.5082 11.866 22.232C11.3877 22.5082 11.2239 23.1198 11.5 23.5981C11.7761 24.0764 12.3877 24.2402 12.866 23.9641C13.3443 23.688 13.5082 23.0764 13.232 22.5981L20.1603 18.5981C20.4364 19.0764 21.048 19.2402 21.5263 18.9641C22.0046 18.688 22.1684 18.0764 21.8923 17.5981Z" fill="#FBFBFB"/>
<path fill-rule="evenodd" clip-rule="evenodd" d="M10.5 17.5981C10.7761 17.1198 11.3877 16.9559 11.866 17.232C11.3877 16.9559 11.2239 16.3443 11.5 15.866C11.7761 15.3877 12.3877 15.2239 12.866 15.5C13.3443 15.7761 13.5082 16.3877 13.2321 16.866L20.1603 20.866C20.4364 20.3877 21.048 20.2239 21.5263 20.5C22.0046 20.7761 22.1684 21.3877 21.8923 21.866C21.6162 22.3443 21.0046 22.5082 20.5263 22.232C21.0046 22.5082 21.1684 23.1198 20.8923 23.5981C20.6162 24.0764 20.0046 24.2402 19.5263 23.9641C19.048 23.688 18.8841 23.0764 19.1603 22.5981L12.2321 18.5981C11.9559 19.0764 11.3443 19.2402 10.866 18.9641C10.3877 18.688 10.2239 18.0764 10.5 17.5981Z" fill="#FBFBFB"/>
</svg>
