<svg width="32" height="32" viewBox="0 0 32 32" fill="none" xmlns="http://www.w3.org/2000/svg">
<path d="M26 8H6V25C6 26.6569 10.4772 28 16 28C21.5228 28 26 26.6569 26 25V8Z" fill="#56C4F5"/>
<ellipse cx="16" cy="8" rx="10" ry="3" fill="#C4C4C4"/>
<ellipse cx="16" cy="8" rx="7" ry="2" fill="#EAEAEA"/>
<circle cx="16" cy="19" r="6" fill="#EAEAEA"/>
<path d="M15 18.6485C15 17.7957 15.7802 17.156 16.6165 17.3233L17.1478 17.4296C17.3803 17.4761 17.6197 17.4761 17.8522 17.4296L18.3835 17.3233C19.2198 17.156 20 17.7957 20 18.6485V18.6485C20 19.3949 19.3949 20 18.6485 20H17.5H16.3515C15.6051 20 15 19.3949 15 18.6485V18.6485Z" fill="#E1895C"/>
<path d="M13 19.6485C13 18.7957 13.7802 18.156 14.6165 18.3233L15.1478 18.4296C15.3803 18.4761 15.6197 18.4761 15.8522 18.4296L16.3835 18.3233C17.2198 18.156 18 18.7957 18 19.6485V19.6485C18 20.3949 17.3949 21 16.6485 21H15.5H14.3515C13.6051 21 13 20.3949 13 19.6485V19.6485Z" fill="#FFB38D"/>
</svg>
