<svg width="32" height="32" viewBox="0 0 32 32" fill="none" xmlns="http://www.w3.org/2000/svg">
<path d="M3 19.3158C3 16.2619 3.95857 13.0815 5.80467 10.6487C7.92261 7.85775 11.6968 6 16 6C20.3032 6 24.0774 7.85775 26.1953 10.6487C28.0414 13.0815 29 16.2619 29 19.3158C29 24.1119 25.6421 28 21.5 28H10.5C6.35787 28 3 24.1119 3 19.3158Z" fill="#FFB38D"/>
<path d="M3 17.8171C3.25984 15.2456 4.18329 12.6852 5.72868 10.6487C7.84661 7.85775 11.6208 6 15.924 6C20.2272 6 24.0014 7.85775 26.1193 10.6487C27.6647 12.6852 28.5882 15.2456 28.848 17.8171C26.238 20.3207 21.4271 22 15.924 22C10.4209 22 5.61001 20.3207 3 17.8171Z" fill="#FF9E59"/>
<path d="M17 7C18.0705 7.21409 18.9072 8.05085 19.1213 9.12132C18.0508 8.90723 17.2141 8.07047 17 7Z" fill="#FFB38D"/>
<path d="M16 7C16.6667 7.90833 16.6667 9.09167 16 10C15.3333 9.09167 15.3333 7.90833 16 7Z" fill="#FFB38D"/>
<path d="M15 7C13.9295 7.21409 13.0928 8.05085 12.8787 9.12132C13.9492 8.90723 14.7859 8.07047 15 7Z" fill="#FFB38D"/>
</svg>
