<svg width="32" height="32" viewBox="0 0 32 32" fill="none" xmlns="http://www.w3.org/2000/svg">
<circle cx="16" cy="17" r="14" fill="#E0D7D1"/>
<circle cx="16" cy="16" r="14" fill="#FBFBFB"/>
<path d="M7 15H25V19.8125C25 23.2298 20.9706 26 16 26C11.0294 26 7 23.2298 7 19.8125V15Z" fill="#FFB38D"/>
<path d="M7 13H25V17.8125C25 21.2298 20.9706 24 16 24C11.0294 24 7 21.2298 7 17.8125V13Z" fill="#FFCAAF"/>
<path d="M18.8356 6.83564L25.9067 19.0831L13.6593 26.1542L6.58819 13.9067L18.8356 6.83564Z" fill="#EDBA07"/>
<path d="M13.4118 6.58819L25.6593 13.6593L18.5882 25.9067L6.34074 18.8356L13.4118 6.58819Z" fill="#EDBA07"/>
<path d="M25.0549 15C25.0549 19.9706 21.0255 24 16.0549 24C11.0844 24 7.05493 19.9706 7.05493 15C7.05493 10.0294 11.0844 6 16.0549 6C21.0255 6 25.0549 10.0294 25.0549 15Z" fill="#F25656"/>
<path d="M14.2093 8.61596C14.3015 7.7083 15.068 7 16 7C16.0621 7 16.1235 7.00315 16.184 7.00929C17.0917 7.10147 17.8 7.86802 17.8 8.8L17.8 9.28232L18.0412 8.86462C18.5382 8.00369 19.6391 7.70872 20.5 8.20577C21.3609 8.70283 21.6559 9.80369 21.1589 10.6646L20.9177 11.0823L21.3354 10.8412C22.1963 10.3441 23.2972 10.6391 23.7942 11.5C24.2913 12.3609 23.9963 13.4618 23.1354 13.9588L22.7177 14.2H23.2C24.1941 14.2 25 15.0059 25 16C25 16.9941 24.1941 17.8 23.2 17.8H22.7177L23.1354 18.0411C23.9963 18.5382 24.2913 19.6391 23.7942 20.5C23.2972 21.3609 22.1963 21.6559 21.3354 21.1588L20.9177 20.9177L21.1588 21.3354C21.6559 22.1963 21.3609 23.2972 20.5 23.7942C19.6391 24.2913 18.5382 23.9963 18.0412 23.1354L17.8 22.7177V23.2C17.8 24.1941 16.9941 25 16 25C15.9961 25 15.9922 25 15.9884 25C14.9996 24.9937 14.2 24.1902 14.2 23.2L14.2 22.7177L13.9588 23.1354C13.4618 23.9963 12.3609 24.2913 11.5 23.7942C10.6391 23.2972 10.3441 22.1963 10.8412 21.3354L11.0823 20.9177L10.6646 21.1588C9.8037 21.6559 8.70283 21.3609 8.20578 20.5C7.70872 19.6391 8.00369 18.5382 8.86462 18.0412L9.28232 17.8H8.8C8.73787 17.8 8.67647 17.7969 8.61596 17.7907C7.7083 17.6985 7 16.932 7 16C7 15.0059 7.80589 14.2 8.8 14.2H9.28232L8.86462 13.9588C8.00369 13.4618 7.70872 12.3609 8.20577 11.5C8.70283 10.6391 9.80369 10.3441 10.6646 10.8411L11.0823 11.0823L10.8412 10.6646C10.3441 9.80369 10.6391 8.70282 11.5 8.20577C12.3609 7.70871 13.4618 8.00369 13.9588 8.86461L14.2 9.2823V8.8C14.2 8.73787 14.2031 8.67647 14.2093 8.61596Z" fill="#0BCD77"/>
<path d="M16 5L26 15L16 25L6 15L16 5Z" fill="#FBD03B"/>
<path d="M7 14C7 10.8619 8.8789 7.72604 11.5957 6.15542C12.8589 5.42514 14.3727 5 16 5C17.6273 5 19.1411 5.42514 20.4043 6.15542C23.1211 7.72604 25 10.8619 25 14C25 18.4183 20.9706 22 16 22C11.0294 22 7 18.4183 7 14Z" fill="#F29856"/>
<path d="M7 14C7 10.8619 8.8789 7.72604 11.5957 6.15542C12.8589 5.42514 14.3727 5 16 5C17.6273 5 19.1411 5.42514 20.4043 6.15542C23.1211 7.72604 25 10.8619 25 14C25 18.4183 20.9706 22 16 22C11.0294 22 7 18.4183 7 14Z" fill="#F29856"/>
<path d="M17 12V12C18.1046 12 19 12.8954 19 14V14V14C17.8954 14 17 13.1046 17 12V12Z" fill="#FFE68D"/>
<path d="M17 11V11C18.1046 11 19 10.1046 19 9V9V9C17.8954 9 17 9.89543 17 11V11Z" fill="#FFE68D"/>
<path d="M15 12V12C13.8954 12 13 12.8954 13 14V14V14C14.1046 14 15 13.1046 15 12V12Z" fill="#FFE68D"/>
<path d="M15 11V11C13.8954 11 13 10.1046 13 9V9V9C14.1046 9 15 9.89543 15 11V11Z" fill="#FFE68D"/>
</svg>
