<svg width="32" height="32" viewBox="0 0 32 32" fill="none" xmlns="http://www.w3.org/2000/svg">
<circle cx="10.5" cy="21.5" r="7.5" fill="#A39995" fill-opacity="0.5"/>
<rect x="17" y="17" width="3" height="1" fill="#A3A3A3"/>
<rect x="28" y="14" width="4" height="1" transform="rotate(90 28 14)" fill="#A3A3A3"/>
<path d="M7.67324 11.2278C7.91276 10.759 8.47476 10.5562 8.95847 10.764L18.2649 14.7621C18.7486 14.9699 18.9884 15.5171 18.8132 16.0136L14.4781 28.3001C14.2857 28.8456 13.6719 29.1145 13.1404 28.8862L2.24137 24.2039C1.70988 23.9756 1.4824 23.3453 1.74558 22.8302L7.67324 11.2278Z" fill="#E6E6E6"/>
<path d="M2.24137 24.2039L13.1404 28.8862C13.5379 29.057 13.9814 28.9496 14.2603 28.6565L15.8929 20.9348C16.0901 20.0021 15.6016 19.0598 14.7256 18.6835L8.55056 16.0306C7.67461 15.6543 6.65481 15.9486 6.11402 16.7337L1.63709 23.2335C1.61643 23.6376 1.84388 24.0332 2.24137 24.2039Z" fill="#C4C4C4"/>
<path d="M18.2649 14.7621L8.95847 10.764C8.65831 10.6351 8.32801 10.6642 8.06333 10.8169L7.95449 12.1094C7.88225 12.9672 8.36703 13.775 9.15799 14.1148L15.6971 16.9241C16.488 17.2639 17.4077 17.0594 17.9802 16.4165L18.8427 15.4478C18.7713 15.1507 18.5651 14.891 18.2649 14.7621Z" fill="#C4C4C4"/>
<path fill-rule="evenodd" clip-rule="evenodd" d="M11.1468 25.6663C13.1987 24.8476 14.1984 22.5206 13.3797 20.4687C12.561 18.4169 10.234 17.4172 8.18217 18.2359C6.13032 19.0545 5.13062 21.3815 5.94929 23.4334C6.76795 25.4852 9.09496 26.4849 11.1468 25.6663ZM10.4057 23.8087C11.4316 23.3993 11.9314 22.2358 11.5221 21.2099C11.1128 20.184 9.94925 19.6841 8.92333 20.0935C7.8974 20.5028 7.39756 21.6663 7.80689 22.6922C8.21622 23.7181 9.37973 24.218 10.4057 23.8087Z" fill="#FBFBFB"/>
<rect x="9.14705" y="13.0218" width="1" height="4" rx="0.5" transform="rotate(23.2486 9.14705 13.0218)" fill="#A3A3A3"/>
<rect x="15.5787" y="15.7848" width="1" height="4" rx="0.5" transform="rotate(23.2486 15.5787 15.7848)" fill="#A3A3A3"/>
<circle cx="12.4509" cy="20.8393" r="1" transform="rotate(68.2486 12.4509 20.8393)" fill="#FBD03B"/>
<circle cx="10.7762" cy="24.7375" r="1" transform="rotate(68.2486 10.7762 24.7375)" fill="#F86E00"/>
<circle cx="6.87808" cy="23.0628" r="1" transform="rotate(68.2486 6.87808 23.0628)" fill="#56C4F5"/>
<circle cx="8.55274" cy="19.1647" r="1" transform="rotate(68.2486 8.55274 19.1647)" fill="#F25656"/>
<circle cx="10.8486" cy="19.1947" r="1" transform="rotate(23.2486 10.8486 19.1947)" fill="#657DAC"/>
<circle cx="12.4209" cy="23.1352" r="1" transform="rotate(23.2486 12.4209 23.1352)" fill="#05E682"/>
<circle cx="8.48033" cy="24.7075" r="1" transform="rotate(23.2486 8.48033 24.7075)" fill="#FFB38D"/>
<circle cx="6.90808" cy="20.7669" r="1" transform="rotate(23.2486 6.90808 20.7669)" fill="#FF8FA0"/>
<path d="M28.3744 13.092C28.931 14.046 28.6089 15.2707 27.6549 15.8274L20.0951 2.87167C21.0492 2.31499 22.2738 2.6371 22.8305 3.59113L28.3744 13.092Z" fill="#A39995" fill-opacity="0.5"/>
<path d="M20.4558 8.4502C20.2086 8.59443 19.9002 8.49021 19.756 8.24303L17.2679 3.97908C17.1237 3.7319 17.1847 3.41215 17.4319 3.26792C18.3272 2.7455 19.3262 2.60973 20.1891 2.81685C20.6142 2.56878 21.1599 2.71232 21.408 3.13744L22.5256 5.05279C22.7737 5.47791 22.6301 6.02363 22.205 6.2717C21.9608 7.12479 21.3511 7.92778 20.4558 8.4502Z" fill="#A39995" fill-opacity="0.5"/>
<path d="M25.9996 17.951C25.7524 18.0953 25.444 17.991 25.2998 17.7439L22.8118 13.4799C22.6675 13.2327 22.7285 12.913 22.9757 12.7688C23.871 12.2463 24.8701 12.1106 25.7329 12.3177C26.158 12.0696 26.7038 12.2132 26.9518 12.6383L28.0695 14.5536C28.3175 14.9787 28.174 15.5245 27.7489 15.7725C27.5047 16.6256 26.8949 17.4286 25.9996 17.951Z" fill="#A39995" fill-opacity="0.5"/>
<path d="M28.3744 12.092C28.931 13.046 28.6089 14.2707 27.6549 14.8274L20.0951 1.87167C21.0492 1.31499 22.2738 1.6371 22.8305 2.59113L28.3744 12.092Z" fill="#C4C4C4"/>
<path d="M20.4558 7.4502C20.2086 7.59443 19.9002 7.49021 19.756 7.24303L17.2679 2.97908C17.1237 2.7319 17.1847 2.41215 17.4319 2.26792C18.3272 1.7455 19.3262 1.60973 20.1891 1.81685C20.6142 1.56878 21.1599 1.71232 21.408 2.13744L22.5256 4.05279C22.7737 4.47791 22.6301 5.02363 22.205 5.2717C21.9608 6.12479 21.3511 6.92778 20.4558 7.4502Z" fill="#C4C4C4"/>
<path d="M25.9996 16.951C25.7524 17.0953 25.444 16.991 25.2998 16.7439L22.8118 12.4799C22.6675 12.2327 22.7285 11.913 22.9757 11.7688C23.871 11.2463 24.8701 11.1106 25.7329 11.3177C26.158 11.0696 26.7038 11.2132 26.9518 11.6383L28.0695 13.5536C28.3175 13.9787 28.174 14.5245 27.7489 14.7725C27.5047 15.6256 26.8949 16.4286 25.9996 16.951Z" fill="#C4C4C4"/>
<path fill-rule="evenodd" clip-rule="evenodd" d="M19 18C19 17.4477 19.4477 17 20 17V17C20.5523 17 21 17.4477 21 18V18C21 18.5523 21.4477 19 22 19V19C22.5523 19 23 19.4477 23 20V20C23 20.5523 23.4477 21 24 21V21C24.5523 21 25 20.5523 25 20V20C25 19.4477 25.4477 19 26 19V19C26.5523 19 27 18.5523 27 18V18C27 17.4477 27.4477 17 28 17V17C28.5523 17 29 17.4477 29 18V19C29 19.5523 28.5523 20 28 20V20C27.4477 20 27 20.4477 27 21V21C27 21.5523 26.5523 22 26 22V22C25.4477 22 25 22.4477 25 23V23C25 23.5523 24.5523 24 24 24V24C23.4477 24 23 23.5523 23 23V23C23 22.4477 22.5523 22 22 22V22C21.4477 22 21 21.5523 21 21V21C21 20.4477 20.5523 20 20 20V20C19.4477 20 19 19.5523 19 19V18Z" fill="#C4C4C4"/>
</svg>
