<svg width="32" height="32" viewBox="0 0 32 32" fill="none" xmlns="http://www.w3.org/2000/svg">
<path d="M14 2C15.1046 2 16 2.89543 16 4C16 2.89543 16.8954 2 18 2C18.8724 2 19.6143 2.55857 19.8877 3.33759C20.2057 3.12437 20.5883 3 21 3C22.1046 3 23 3.89543 23 5C23 5.41166 22.8756 5.79427 22.6624 6.1123C23.4414 6.38566 24 7.1276 24 8C24 9.10457 23.1046 10 22 10L16 12L10 10C8.89543 10 8 9.10457 8 8C8 7.1276 8.55857 6.38566 9.33759 6.11231C9.12437 5.79427 9 5.41166 9 5C9 3.89543 9.89543 3 11 3C11.4117 3 11.7943 3.12437 12.1123 3.33759C12.3857 2.55857 13.1276 2 14 2Z" fill="#05E682"/>
<path d="M21 21.9513C21 25.2277 19.5642 28.1532 17.3809 29.5849C16.537 30.1384 15.463 30.1384 14.6191 29.5849C12.4358 28.1532 11 25.2277 11 21.9513L11 13.2001C11 12.2616 11.5758 11.4335 12.4183 11.1605L16 10L19.5817 11.1605C20.4242 11.4335 21 12.2616 21 13.2001L21 21.9513Z" fill="#FF9E59"/>
</svg>
