<svg width="32" height="32" viewBox="0 0 32 32" fill="none" xmlns="http://www.w3.org/2000/svg">
<circle cx="16" cy="17" r="14" fill="#E0D7D1"/>
<circle cx="16" cy="16" r="14" fill="#FBFBFB"/>
<path d="M7 14H25V18.8125C25 22.2298 20.9706 25 16 25C11.0294 25 7 22.2298 7 18.8125V14Z" fill="#FFB38D"/>
<path d="M7 13H25V17.8125C25 21.2298 20.9706 24 16 24C11.0294 24 7 21.2298 7 17.8125V13Z" fill="#FFCAAF"/>
<path d="M18.8356 6.58819L25.9067 18.8356L13.6593 25.9067L6.58819 13.6593L18.8356 6.58819Z" fill="#EDBA07"/>
<path d="M13.4118 6.58819L25.6593 13.6593L18.5882 25.9067L6.34074 18.8356L13.4118 6.58819Z" fill="#EDBA07"/>
<path d="M16 6L26 16L16 26L6 16L16 6Z" fill="#FBD03B"/>
<path d="M7 14C7 10.8619 8.8789 7.72604 11.5957 6.15542C12.8589 5.42514 14.3727 5 16 5C17.6273 5 19.1411 5.42514 20.4043 6.15542C23.1211 7.72604 25 10.8619 25 14C25 18.4183 20.9706 22 16 22C11.0294 22 7 18.4183 7 14Z" fill="#F29856"/>
<path d="M7 14C7 10.8619 8.8789 7.72604 11.5957 6.15542C12.8589 5.42514 14.3727 5 16 5C17.6273 5 19.1411 5.42514 20.4043 6.15542C23.1211 7.72604 25 10.8619 25 14C25 18.4183 20.9706 22 16 22C11.0294 22 7 18.4183 7 14Z" fill="#F29856"/>
<path d="M9 12.8824C9 10.4826 10.4614 8.08462 12.5744 6.88355C13.5569 6.32511 14.7343 6 16 6C17.2657 6 18.4431 6.32511 19.4256 6.88355C21.5386 8.08462 23 10.4826 23 12.8824C23 16.261 19.866 19 16 19C12.134 19 9 16.261 9 12.8824Z" fill="#E68743"/>
<path d="M17 12C18.1046 12 19 12.8954 19 14C17.8954 14 17 13.1046 17 12Z" fill="#FFE68D"/>
<path d="M17 11C18.1046 11 19 10.1046 19 9C17.8954 9 17 9.89543 17 11Z" fill="#FFE68D"/>
<path d="M15 12C13.8954 12 13 12.8954 13 14C14.1046 14 15 13.1046 15 12Z" fill="#FFE68D"/>
<path d="M15 11C13.8954 11 13 10.1046 13 9C14.1046 9 15 9.89543 15 11Z" fill="#FFE68D"/>
</svg>
