<svg width="32" height="32" viewBox="0 0 32 32" fill="none" xmlns="http://www.w3.org/2000/svg">
<path d="M14 1H16V5L14 1Z" fill="#A76F53"/>
<path d="M18 2H16V6L18 2Z" fill="#A76F53"/>
<path d="M14 27C14 25.8954 14.8954 25 16 25C17.1046 25 18 25.8954 18 27V28C18 29.1046 17.1046 30 16 30C14.8954 30 14 29.1046 14 28V27Z" fill="#05E682"/>
<path d="M8 13.2462C8 8.39986 11.2983 4.17541 16 3C20.7017 4.17541 24 8.39986 24 13.2462V26L16 28L8 26V13.2462Z" fill="#FBD03B"/>
<path d="M2.82542 15.6509C4.07314 14.5965 5.49333 14 7 14C11.8664 14 15.8307 20.2227 15.9947 27.9987L8 26L2.82542 15.6509Z" fill="#0BCD77"/>
<path d="M29.1693 15.6509C27.9216 14.5965 26.5014 14 24.9947 14C20.1283 14 8.16399 18.224 8 26L16 28L23.9947 26L29.1693 15.6509Z" fill="#05E682"/>
</svg>
