<svg width="32" height="32" viewBox="0 0 32 32" fill="none" xmlns="http://www.w3.org/2000/svg">
<path d="M5.43505 5.31425C5.22083 4.6671 5.70271 4 6.38439 4H25.6156C26.2973 4 26.7792 4.6671 26.565 5.31425L26.0833 6.76923L26.5093 11.059C26.8356 14.3449 26.8356 17.6551 26.5093 20.941L26.0833 25.2308L26.565 26.6858C26.7792 27.3329 26.2973 28 25.6156 28H6.38439C5.70271 28 5.22083 27.3329 5.43505 26.6858L5.91667 25.2308L5.49067 20.941C5.16436 17.6551 5.16436 14.3449 5.49067 11.059L5.91667 6.76923L5.43505 5.31425Z" fill="#CAB671"/>
<path d="M10 11C10 9.34315 11.3431 8 13 8H19C20.6569 8 22 9.34315 22 11V21C22 22.6569 20.6569 24 19 24H13C11.3431 24 10 22.6569 10 21V11Z" fill="#DECB88"/>
<path d="M19 12C17.3431 12 16 13.3431 16 15C17.6569 15 19 13.6569 19 12Z" fill="#A76F53"/>
<path d="M13 14C14.6569 14 16 15.3431 16 17C14.3431 17 13 15.6569 13 14Z" fill="#A76F53"/>
<path d="M13 17C14.6569 17 16 18.3431 16 20C14.3431 20 13 18.6569 13 17Z" fill="#A76F53"/>
<path d="M19 15C17.3431 15 16 16.3431 16 18C17.6569 18 19 16.6569 19 15Z" fill="#A76F53"/>
</svg>
