<svg width="32" height="32" viewBox="0 0 32 32" fill="none" xmlns="http://www.w3.org/2000/svg">
<circle cx="16" cy="17" r="14" fill="#E0D7D1"/>
<circle cx="16" cy="16" r="14" fill="#FBFBFB"/>
<path d="M12 24L12 16L10 16L10 22L12 24Z" fill="#FFC01D"/>
<rect x="15" y="11" width="2" height="12" fill="#FFC01D"/>
<rect x="19" y="13" width="2" height="11" fill="#FFC01D"/>
<rect x="22" y="16" width="2" height="4" fill="#FFC01D"/>
<path d="M14 22L14 14L12 14L12 20L14 22Z" fill="#FFC01D"/>
<path d="M17 25.5L17 10L19 10L19 23.5L17 25.5Z" fill="#FFC01D"/>
<path d="M16 21L16 13L14 13L14 19L16 21Z" fill="#FBD03B"/>
<path d="M18 23L18 15L20 15L20 21L18 23Z" fill="#FBD03B"/>
<path d="M11 22L11 14L13 14L13 20L11 22Z" fill="#FBD03B"/>
<rect x="21" y="13" width="2" height="8" fill="#FBD03B"/>
<path d="M8 15H10V20H8V15Z" fill="#FBD03B"/>
<path d="M10.7721 6.68377C10.9082 6.27543 11.2903 6 11.7208 6H20.2792C20.7097 6 21.0918 6.27543 21.2279 6.68377L25 18H21L20.6641 17.4962C19.6245 15.9367 17.8742 15 16 15V15C14.1258 15 12.3755 15.9367 11.3359 17.4962L11 18H7L10.7721 6.68377Z" fill="#F25656"/>
<path d="M14.949 8.84475L14.5416 10.8003C14.5174 10.9167 14.4149 11 14.2961 11C14.1411 11 14.0232 10.8608 14.0487 10.708L14.3742 8.75494C14.4468 8.3193 14.8237 8 15.2654 8C15.6933 8 16.0626 8.30025 16.1498 8.7192L16.449 10.1553C16.4787 10.2978 16.6044 10.4 16.75 10.4C16.8956 10.4 17.0213 10.2978 17.051 10.1553L17.4584 8.19965C17.4826 8.08335 17.5851 8 17.7039 8C17.8589 8 17.9768 8.13916 17.9513 8.29203L17.6258 10.2451C17.5532 10.6807 17.1763 11 16.7346 11C16.3067 11 15.9374 10.6998 15.8502 10.2808L15.551 8.84475C15.5213 8.70217 15.3956 8.6 15.25 8.6C15.1044 8.6 14.9787 8.70217 14.949 8.84475Z" fill="#FBD03B"/>
</svg>
