<svg width="64" height="64" viewBox="0 0 64 64" fill="none" xmlns="http://www.w3.org/2000/svg">
<circle cx="33" cy="33" r="29" fill="#9B9285" fill-opacity="0.2"/>
<circle cx="32" cy="32" r="28" fill="#FBFBFB"/>
<path fill-rule="evenodd" clip-rule="evenodd" d="M22 58.1615C11.4745 54.1358 4 43.9408 4 32C4 20.0592 11.4745 9.8642 22 5.83852V58.1615Z" fill="#657DAC"/>
<path fill-rule="evenodd" clip-rule="evenodd" d="M42 58.1615C52.5255 54.1358 60 43.9408 60 32C60 20.0592 52.5255 9.86421 42 5.83852L42 58.1615Z" fill="#F25656"/>
<path fill-rule="evenodd" clip-rule="evenodd" d="M33 15H31L30 33.5125C29.789 36.4663 28.2372 39.335 26.7679 41.9062C25.5987 43.9522 24.0729 45.7726 22.2626 47.2812L19 50H25.0709C25.5561 46.6077 28.4735 44 32 44C35.5265 44 38.4439 46.6077 38.9291 50H45L41.7374 47.2812C39.9271 45.7726 38.4013 43.9522 37.2321 41.9062C35.7628 39.335 34.211 36.4663 34 33.5125L33 15ZM33 37H31L30.7071 37.8787C30.2363 39.2911 29.6658 40.6683 29 42H35C34.3342 40.6683 33.7637 39.2911 33.2929 37.8787L33 37Z" fill="#465A81"/>
<path d="M18 49.5C18 49.2239 18.2239 49 18.5 49H23.5C23.7761 49 24 49.2239 24 49.5C24 49.7761 23.7761 50 23.5 50H18.5C18.2239 50 18 49.7761 18 49.5Z" fill="#465A81"/>
<path d="M40 49.5C40 49.2239 40.2239 49 40.5 49H45.5C45.7761 49 46 49.2239 46 49.5C46 49.7761 45.7761 50 45.5 50H40.5C40.2239 50 40 49.7761 40 49.5Z" fill="#465A81"/>
<path d="M26 42H38V44H26V42Z" fill="#465A81"/>
<path d="M29 35H35V37H29V35Z" fill="#465A81"/>
<path d="M30 15.5C30 15.2239 30.2239 15 30.5 15H33.5C33.7761 15 34 15.2239 34 15.5C34 15.7761 33.7761 16 33.5 16H30.5C30.2239 16 30 15.7761 30 15.5Z" fill="#465A81"/>
<path d="M33 15C33 15.5523 32.5523 16 32 16C31.4477 16 31 15.5523 31 15C31 14.4477 31.4477 14 32 14C32.5523 14 33 14.4477 33 15Z" fill="#465A81"/>
<path d="M32 10L31 24H33L32 10Z" fill="#465A81"/>
<path fill-rule="evenodd" clip-rule="evenodd" d="M57.7836 42.9368C53.524 52.9662 43.5834 60 32 60V54.6364C32 46.0006 38.9396 39 47.5 39C51.4459 39 55.0473 40.4874 57.7836 42.9368Z" fill="#FBD03B"/>
<path d="M43 35H49V41C49 42.6569 47.6569 44 46 44V44C44.3431 44 43 42.6569 43 41V35Z" fill="#FFB38D"/>
<rect x="37" y="25" width="2" height="1" fill="#3D3B38"/>
<path d="M38 26C38 21.5817 41.5817 18 46 18C50.4183 18 54 21.5817 54 26V32C54 36.4183 50.4183 40 46 40C41.5817 40 38 36.4183 38 32V26Z" fill="#FFC6A9"/>
<path d="M55 22H51L54 26V27H55V22Z" fill="#3D3B38"/>
<path d="M53 27.4545C53 26.6512 53.6716 26 54.5 26C55.3284 26 56 26.6512 56 27.4545V28.5455C56 29.3488 55.3284 30 54.5 30C53.6716 30 53 29.3488 53 28.5455V27.4545Z" fill="#FFC6A9"/>
<path d="M43 34.5C43 33.6716 43.6716 33 44.5 33V33C45.3284 33 46 33.6716 46 34.5V35.5C46 36.3284 45.3284 37 44.5 37V37C43.6716 37 43 36.3284 43 35.5V34.5Z" fill="#9F1F1F"/>
<path fill-rule="evenodd" clip-rule="evenodd" d="M53.9381 25H38.0619C38.554 21.0537 41.9204 18 46 18C50.0796 18 53.446 21.0537 53.9381 25Z" fill="#FFB38D"/>
<path d="M46.5 12C41.8363 12 38.0556 15.5817 38.0556 20V22H54.9444V20C54.9444 15.5817 51.1637 12 46.5 12Z" fill="#845842"/>
<path d="M37 21C37 20.4477 37.4726 20 38.0556 20H54.9444C55.5274 20 56 20.4477 56 21V23C56 23.5523 55.5274 24 54.9444 24H38.0556C37.4726 24 37 23.5523 37 23V21Z" fill="#845842"/>
<path fill-rule="evenodd" clip-rule="evenodd" d="M40 30C42.2091 30 44 28.2091 44 26C44 23.7909 42.2091 22 40 22C37.7909 22 36 23.7909 36 26C36 28.2091 37.7909 30 40 30ZM40 29C41.6569 29 43 27.6569 43 26C43 24.3431 41.6569 23 40 23C38.3431 23 37 24.3431 37 26C37 27.6569 38.3431 29 40 29Z" fill="#3D3B38"/>
<path fill-rule="evenodd" clip-rule="evenodd" d="M49 30C51.2091 30 53 28.2091 53 26C53 23.7909 51.2091 22 49 22C46.7909 22 45 23.7909 45 26C45 28.2091 46.7909 30 49 30ZM49 29C50.6569 29 52 27.6569 52 26C52 24.3431 50.6569 23 49 23C47.3431 23 46 24.3431 46 26C46 27.6569 47.3431 29 49 29Z" fill="#3D3B38"/>
<path d="M52 25H54.5C54.7761 25 55 25.2239 55 25.5C55 25.7761 54.7761 26 54.5 26H52V25Z" fill="#3D3B38"/>
<rect x="42" y="30" width="1" height="3" rx="0.5" transform="rotate(90 42 30)" fill="#F25656" fill-opacity="0.5"/>
<rect x="43" y="25" width="3" height="1" fill="#3D3B38"/>
<rect x="51" y="30" width="1" height="3" rx="0.5" transform="rotate(90 51 30)" fill="#F25656" fill-opacity="0.5"/>
<circle cx="41" cy="27" r="1" fill="#845842"/>
<circle cx="48" cy="27" r="1" fill="#845842"/>
<path fill-rule="evenodd" clip-rule="evenodd" d="M46 35.05V35.5C46 36.3284 45.3284 37 44.5 37C43.9928 37 43.5444 36.7483 43.2729 36.363C43.6869 35.5539 44.5288 35 45.5 35C45.6712 35 45.8384 35.0172 46 35.05Z" fill="#F25656"/>
</svg>
