<svg width="64" height="64" viewBox="0 0 64 64" fill="none" xmlns="http://www.w3.org/2000/svg">
<circle cx="33" cy="33" r="29" fill="#9B9285" fill-opacity="0.2"/>
<g clip-path="url(#clip0_71_1765)">
<path fill-rule="evenodd" clip-rule="evenodd" d="M22 58.1615C11.4745 54.1358 4 43.9408 4 32C4 20.0592 11.4745 9.8642 22 5.83852V58.1615Z" fill="#657DAC"/>
<path d="M60 32C60 47.464 47.464 60 32 60C16.536 60 4 47.464 4 32C4 16.536 16.536 4 32 4C47.464 4 60 16.536 60 32Z" fill="#FFC01D"/>
<path d="M59 36C59 48.1503 49.1503 58 37 58C24.8497 58 15 48.1503 15 36C15 23.8497 24.8497 14 37 14C49.1503 14 59 23.8497 59 36Z" fill="#FFA51D"/>
<path d="M56 41.5C56 50.0604 49.0604 57 40.5 57C31.9396 57 25 50.0604 25 41.5C25 32.9396 31.9396 26 40.5 26C49.0604 26 56 32.9396 56 41.5Z" fill="#FF971D"/>
<path d="M29 63.6364C29 55.0006 22.0604 48 13.5 48C4.93959 48 -2 55.0006 -2 63.6364V75.3636C-2 83.9994 4.93959 91 13.5 91C22.0604 91 29 83.9994 29 75.3636V63.6364Z" fill="#657DAC"/>
<path d="M18 43H12V49C12 50.6569 13.3431 52 15 52V52C16.6569 52 18 50.6569 18 49V43Z" fill="#FFB38D"/>
<rect width="2" height="1" transform="matrix(-1 0 0 1 26 33)" fill="#3D3B38"/>
<path d="M25 34C25 29.5817 21.4183 26 17 26C12.5817 26 9 29.5817 9 34V40C9 44.4183 12.5817 48 17 48C21.4183 48 25 44.4183 25 40V34Z" fill="#FFC6A9"/>
<path d="M8 30H12L9 34V35H8V30Z" fill="#3D3B38"/>
<path d="M10 35.4545C10 34.6512 9.32843 34 8.5 34C7.67157 34 7 34.6512 7 35.4545V36.5455C7 37.3488 7.67157 38 8.5 38C9.32843 38 10 37.3488 10 36.5455V35.4545Z" fill="#FFC6A9"/>
<path fill-rule="evenodd" clip-rule="evenodd" d="M9.06189 33H24.9381C24.446 29.0537 21.0796 26 17 26C12.9204 26 9.55399 29.0537 9.06189 33Z" fill="#FFB38D"/>
<path d="M16.5 20C21.1637 20 24.9444 23.5817 24.9444 28V30H8.05556V28C8.05556 23.5817 11.8363 20 16.5 20Z" fill="#845842"/>
<path d="M26 29C26 28.4477 25.5274 28 24.9444 28H8.05556C7.47259 28 7 28.4477 7 29V31C7 31.5523 7.47259 32 8.05556 32H24.9444C25.5274 32 26 31.5523 26 31V29Z" fill="#845842"/>
<path fill-rule="evenodd" clip-rule="evenodd" d="M23 38C20.7909 38 19 36.2091 19 34C19 31.7909 20.7909 30 23 30C25.2091 30 27 31.7909 27 34C27 36.2091 25.2091 38 23 38ZM23 37C21.3431 37 20 35.6569 20 34C20 32.3431 21.3431 31 23 31C24.6569 31 26 32.3431 26 34C26 35.6569 24.6569 37 23 37Z" fill="#3D3B38"/>
<path fill-rule="evenodd" clip-rule="evenodd" d="M14 38C11.7909 38 10 36.2091 10 34C10 31.7909 11.7909 30 14 30C16.2091 30 18 31.7909 18 34C18 36.2091 16.2091 38 14 38ZM14 37C12.3431 37 11 35.6569 11 34C11 32.3431 12.3431 31 14 31C15.6569 31 17 32.3431 17 34C17 35.6569 15.6569 37 14 37Z" fill="#3D3B38"/>
<path d="M11 33H8.5C8.22386 33 8 33.2239 8 33.5C8 33.7761 8.22386 34 8.5 34H11V33Z" fill="#3D3B38"/>
<rect width="1" height="3" rx="0.5" transform="matrix(4.37114e-08 1 1 -4.37114e-08 21 38)" fill="#F25656" fill-opacity="0.5"/>
<rect width="3" height="1" transform="matrix(-1 0 0 1 20 33)" fill="#3D3B38"/>
<rect width="1" height="3" rx="0.5" transform="matrix(4.37114e-08 1 1 -4.37114e-08 12 38)" fill="#F25656" fill-opacity="0.5"/>
<rect width="1" height="3" rx="0.5" transform="matrix(4.37114e-08 1 1 -4.37114e-08 13 34)" fill="#845842"/>
<rect width="1" height="5" rx="0.5" transform="matrix(4.37114e-08 1 1 -4.37114e-08 13 42)" fill="#845842"/>
<rect width="1" height="3" rx="0.5" transform="matrix(4.37114e-08 1 1 -4.37114e-08 21 34)" fill="#845842"/>
<path d="M30 19C30 17.8954 30.8954 17 32 17H50C51.1046 17 52 17.8954 52 19V45C52 46.1046 51.1046 47 50 47H32C30.8954 47 30 46.1046 30 45V19Z" fill="#F8AC1A"/>
<path d="M29 19C29 17.8954 29.8954 17 31 17H49C50.1046 17 51 17.8954 51 19V45C51 46.1046 50.1046 47 49 47H31C29.8954 47 29 46.1046 29 45V19Z" fill="#FBFBFB"/>
<path fill-rule="evenodd" clip-rule="evenodd" d="M29 34V45C29 46.1046 29.8954 47 31 47H49C50.1046 47 51 46.1046 51 45V34H29Z" fill="#F2F2F2"/>
<path d="M36.6832 41.9428C36.4845 41.9428 36.3233 42.1039 36.3233 42.3026V42.3026C36.3233 42.5014 36.4845 42.6625 36.6832 42.6625H37.1569C37.4173 42.6625 37.6283 42.8735 37.6283 43.1339V43.1339C37.6283 43.3942 37.4173 43.6053 37.1569 43.6053H36.9758C36.6155 43.6053 36.3233 43.8974 36.3233 44.2578V44.3383C36.3233 44.7038 36.0271 45 35.6617 45V45C35.2962 45 35 44.7038 35 44.3383V42.377C35 41.6165 35.6165 41 36.377 41H37.2825C37.5429 41 37.7539 41.2111 37.7539 41.4714V41.4714C37.7539 41.7318 37.5429 41.9428 37.2825 41.9428H36.6832Z" fill="#6694E1"/>
<path d="M41.1408 45C40.8593 45 40.6071 44.8261 40.507 44.5629L40.3455 44.1381C40.2822 43.9689 40.1995 43.8359 40.0973 43.7392C39.9973 43.6425 39.888 43.5941 39.7696 43.5941V43.5941C39.7408 43.5941 39.7175 43.6175 39.7175 43.6462V44.3383C39.7175 44.7038 39.4213 45 39.0558 45V45C38.6904 45 38.3941 44.7038 38.3941 44.3383V42.7583C38.3941 41.7872 39.1814 41 40.1525 41V41C40.7672 41 41.2206 41.0921 41.5126 41.2762C41.8067 41.4584 41.9537 41.7327 41.9537 42.099C41.9537 42.3742 41.8679 42.6048 41.6964 42.7908C41.5278 42.9757 41.2764 43.1101 40.9422 43.1939C40.939 43.1947 40.9367 43.1976 40.9367 43.2009V43.2009C40.9367 43.2042 40.9389 43.207 40.942 43.2079C41.1255 43.2601 41.2779 43.3442 41.3993 43.4603C41.5238 43.5774 41.6351 43.7513 41.7332 43.9819L41.7651 44.0571C41.9548 44.5043 41.6266 45 41.1408 45V45ZM40.5477 42.2692C40.5477 42.1353 40.5027 42.0293 40.4129 41.9512C40.323 41.8731 40.1821 41.834 39.9901 41.834V41.834C39.8396 41.834 39.7175 41.9561 39.7175 42.1067V42.51C39.7175 42.642 39.8245 42.749 39.9564 42.749V42.749C40.1341 42.749 40.2771 42.7034 40.3853 42.6123C40.4935 42.5212 40.5477 42.4068 40.5477 42.2692Z" fill="#6694E1"/>
<path d="M43.3383 45C42.9729 45 42.6767 44.7038 42.6767 44.3383V41.6617C42.6767 41.2962 42.9729 41 43.3383 41V41C43.7038 41 44 41.2962 44 41.6617V44.3383C44 44.7038 43.7038 45 43.3383 45V45Z" fill="#6694E1"/>
<path fill-rule="evenodd" clip-rule="evenodd" d="M31 17C29.8954 17 29 17.8954 29 19V23H51V19C51 17.8954 50.1046 17 49 17H31Z" fill="#657DAC"/>
<rect x="33" y="15" width="2" height="4" rx="1" fill="#3D3B38"/>
<rect x="45" y="15" width="2" height="4" rx="1" fill="#3D3B38"/>
<path fill-rule="evenodd" clip-rule="evenodd" d="M44.1748 36.6156C44.6305 36.6156 45 36.2461 45 35.7904C45 35.3346 44.6305 34.9652 44.1748 34.9652H42.8456V26.2371C42.8456 25.5539 42.2917 25 41.6084 25C41.2026 25 40.8226 25.1991 40.5915 25.5327L34.2124 34.7421C34.0741 34.9418 34 35.1789 34 35.4218C34 36.0811 34.5345 36.6156 35.1938 36.6156H41.0847V39.1196C41.0847 39.6058 41.4789 40 41.9652 40C42.4514 40 42.8456 39.6058 42.8456 39.1196V36.6156H44.1748ZM40.9605 34.9652H36.5L40.9605 28.5V34.9652Z" fill="#6694E1"/>
</g>
<defs>
<clipPath id="clip0_71_1765">
<rect x="4" y="4" width="56" height="56" rx="28" fill="white"/>
</clipPath>
</defs>
</svg>
