<svg width="64" height="64" viewBox="0 0 64 64" fill="none" xmlns="http://www.w3.org/2000/svg">
<circle cx="33" cy="33" r="29" fill="#9B9285" fill-opacity="0.2"/>
<circle cx="32" cy="32" r="28" fill="#FF8FA0"/>
<circle cx="32" cy="38" r="22" fill="#FF7288"/>
<circle cx="32" cy="46" r="14" fill="#FF8497"/>
<path d="M38 21.5C38 20.1193 39.1193 19 40.5 19H51.5C52.8807 19 54 20.1193 54 21.5V32.5C54 33.8807 52.8807 35 51.5 35H40.5C39.1193 35 38 33.8807 38 32.5V21.5Z" fill="#3D3B38"/>
<path d="M45 19.5H46V21.5L45 19.5Z" fill="#A76F53"/>
<path d="M47 20H46V22L47 20Z" fill="#A76F53"/>
<path d="M45 32.5C45 31.9477 45.4477 31.5 46 31.5C46.5523 31.5 47 31.9477 47 32.5V33C47 33.5523 46.5523 34 46 34C45.4477 34 45 33.5523 45 33V32.5Z" fill="#05E682"/>
<path d="M42 25.6231C42 23.1999 43.6492 21.0877 46 20.5C48.3508 21.0877 50 23.1999 50 25.6231V32L46 33L42 32V25.6231Z" fill="#FBD03B"/>
<path d="M39.4127 26.8254C40.0366 26.2982 40.7467 26 41.5 26C43.9332 26 45.9154 29.1113 45.9974 32.9993L42 32L39.4127 26.8254Z" fill="#0BCD77"/>
<path d="M52.5846 26.8254C51.9608 26.2982 51.2507 26 50.4974 26C48.0642 26 42.082 28.112 42 32L46 33L49.9974 32L52.5846 26.8254Z" fill="#05E682"/>
<path d="M10 21.5C10 20.1193 11.1193 19 12.5 19H23.5C24.8807 19 26 20.1193 26 21.5V32.5C26 33.8807 24.8807 35 23.5 35H12.5C11.1193 35 10 33.8807 10 32.5V21.5Z" fill="#3D3B38"/>
<path d="M23 23H13V31.5C13 32.3284 15.2386 33 18 33C20.7614 33 23 32.3284 23 31.5V23Z" fill="#56C4F5"/>
<ellipse cx="18" cy="23" rx="5" ry="1.5" fill="#C4C4C4"/>
<ellipse cx="18" cy="23" rx="3.5" ry="1" fill="#EAEAEA"/>
<circle cx="18" cy="28.5" r="3" fill="#EAEAEA"/>
<path d="M17.5 28.3243C17.5 27.8978 17.8901 27.578 18.3083 27.6617L18.5739 27.7148C18.6902 27.738 18.8098 27.738 18.9261 27.7148L19.1917 27.6617C19.6099 27.578 20 27.8978 20 28.3243V28.3243C20 28.6975 19.6975 29 19.3243 29H18.75H18.1757C17.8025 29 17.5 28.6975 17.5 28.3243V28.3243Z" fill="#E1895C"/>
<path d="M16.5 28.8243C16.5 28.3978 16.8901 28.078 17.3083 28.1617L17.5739 28.2148C17.6902 28.238 17.8098 28.238 17.9261 28.2148L18.1917 28.1617C18.6099 28.078 19 28.3978 19 28.8243V28.8243C19 29.1975 18.6975 29.5 18.3243 29.5H17.75H17.1757C16.8025 29.5 16.5 29.1975 16.5 28.8243V28.8243Z" fill="#FFB38D"/>
<path fill-rule="evenodd" clip-rule="evenodd" d="M33 24C33 23.4477 32.5523 23 32 23C31.4477 23 31 23.4477 31 24V26H29C28.4477 26 28 26.4477 28 27C28 27.5523 28.4477 28 29 28H31V30C31 30.5523 31.4477 31 32 31C32.5523 31 33 30.5523 33 30V28H35C35.5523 28 36 27.5523 36 27C36 26.4477 35.5523 26 35 26H33V24Z" fill="#FBD03B"/>
<path d="M18.2212 40.483C18.4049 40.1647 18.8033 40.0865 19.0237 40.3254L21.1716 42.6536C21.5121 43.0226 21.1237 43.6953 20.6339 43.585L17.5436 42.8889C17.2265 42.8175 17.0951 42.4334 17.2788 42.1151L18.2212 40.483Z" fill="#FBD03B"/>
<path d="M22.1151 37.2788C22.4334 37.0951 22.8175 37.2265 22.8889 37.5436L23.585 40.6339C23.6953 41.1237 23.0226 41.5121 22.6536 41.1716L20.3254 39.0237C20.0865 38.8033 20.1647 38.4049 20.483 38.2212L22.1151 37.2788Z" fill="#FBD03B"/>
<path fill-rule="evenodd" clip-rule="evenodd" d="M24 58.8405L24 54C24 49.5817 27.5817 46 32 46C36.4183 46 40 49.5817 40 54V58.8405C37.4652 59.5949 34.7799 60 32 60C29.2201 60 26.5348 59.5949 24 58.8405Z" fill="#FFC6A9"/>
<path d="M39 55.4545C39 54.6512 39.6716 54 40.5 54C41.3284 54 42 54.6512 42 55.4545V56.5455C42 57.3488 41.3284 58 40.5 58C39.6716 58 39 57.3488 39 56.5455V55.4545Z" fill="#FFC6A9"/>
<path d="M22 55.4545C22 54.6512 22.6716 54 23.5 54C24.3284 54 25 54.6512 25 55.4545V56.5455C25 57.3488 24.3284 58 23.5 58C22.6716 58 22 57.3488 22 56.5455V55.4545Z" fill="#FFC6A9"/>
<path fill-rule="evenodd" clip-rule="evenodd" d="M39.9381 53H24.0619C24.554 49.0537 27.9204 46 32 46C36.0796 46 39.446 49.0537 39.9381 53Z" fill="#FFB38D"/>
<path d="M32 40C27.0908 40 23.1111 43.5817 23.1111 48V50H40.8889V48C40.8889 43.5817 36.9092 40 32 40Z" fill="#845842"/>
<path d="M22 49C22 48.4477 22.4975 48 23.1111 48H40.8889C41.5025 48 42 48.4477 42 49V51C42 51.5523 41.5025 52 40.8889 52H23.1111C22.4975 52 22 51.5523 22 51V49Z" fill="#845842"/>
<rect x="29" y="58" width="1" height="3" rx="0.5" transform="rotate(90 29 58)" fill="#F25656" fill-opacity="0.5"/>
<rect x="30" y="53" width="4" height="1" fill="#3D3B38"/>
<rect x="38" y="58" width="1" height="3" rx="0.5" transform="rotate(90 38 58)" fill="#F25656" fill-opacity="0.5"/>
<circle cx="27" cy="53" r="1" fill="#845842"/>
<circle cx="37" cy="53" r="1" fill="#845842"/>
<path fill-rule="evenodd" clip-rule="evenodd" d="M27 58C29.2091 58 31 56.2091 31 54C31 51.7909 29.2091 50 27 50C24.7909 50 23 51.7909 23 54C23 56.2091 24.7909 58 27 58ZM27 57C28.6569 57 30 55.6569 30 54C30 52.3431 28.6569 51 27 51C25.3431 51 24 52.3431 24 54C24 55.6569 25.3431 57 27 57Z" fill="#3D3B38"/>
<path fill-rule="evenodd" clip-rule="evenodd" d="M37 58C39.2091 58 41 56.2091 41 54C41 51.7909 39.2091 50 37 50C34.7909 50 33 51.7909 33 54C33 56.2091 34.7909 58 37 58ZM37 57C38.6569 57 40 55.6569 40 54C40 52.3431 38.6569 51 37 51C35.3431 51 34 52.3431 34 54C34 55.6569 35.3431 57 37 57Z" fill="#3D3B38"/>
<path d="M43.8971 43.4038C43.7467 43.2534 43.7014 43.0231 43.8215 42.8475V42.8475C43.8989 42.7426 43.9776 42.6501 44.0577 42.57C44.1847 42.4429 44.3132 42.3393 44.443 42.2592C44.5728 42.1791 44.7082 42.1183 44.849 42.0769C44.9927 42.0327 45.1432 42.0065 45.3006 41.9982C45.4609 41.9871 45.6321 41.9899 45.8144 42.0065C46.0078 42.0231 46.1804 42.0327 46.3323 42.0355C46.4897 42.0382 46.6334 42.03 46.7632 42.0106C46.8958 41.9885 47.0159 41.9512 47.1237 41.8988C47.2341 41.8435 47.3391 41.7662 47.4385 41.6667C47.5242 41.5811 47.5877 41.4872 47.6291 41.385C47.6733 41.28 47.6927 41.1723 47.6871 41.0618C47.6844 40.9541 47.6567 40.8436 47.6043 40.7304C47.5545 40.6199 47.48 40.5149 47.3805 40.4155C47.1651 40.2 46.8958 40.0219 46.5726 39.881V39.881C46.182 39.7059 45.9832 39.1529 46.2858 38.8503L46.5003 38.6358C46.6582 38.4779 46.8891 38.4105 47.0989 38.4869C47.317 38.5662 47.5296 38.6677 47.7369 38.7914C48.0517 38.9792 48.3431 39.2071 48.6111 39.475C48.8679 39.7319 49.0779 39.9998 49.2408 40.2788C49.4066 40.555 49.5101 40.8353 49.5516 41.1198C49.5958 41.4071 49.5681 41.6916 49.4687 41.9733C49.3748 42.2551 49.1953 42.5285 48.9301 42.7937C48.7616 42.9622 48.589 43.0961 48.4122 43.1956C48.2382 43.2923 48.0531 43.3641 47.857 43.411C47.6609 43.458 47.451 43.4828 47.2272 43.4856C47.0063 43.4856 46.7646 43.4732 46.5022 43.4483C46.3254 43.4317 46.1652 43.4207 46.0216 43.4152C45.8807 43.4124 45.7509 43.4207 45.6321 43.44C45.5189 43.4594 45.4111 43.4953 45.3089 43.5477C45.2095 43.5975 45.1114 43.6707 45.0148 43.7673C44.9485 43.8336 44.8891 43.9096 44.8366 43.9952V43.9952C44.7798 44.0962 44.6291 44.1357 44.5471 44.0538L43.8971 43.4038ZM42.4377 45.5738C42.2167 45.3528 42.0993 45.1028 42.0855 44.8239C42.0772 44.5394 42.167 44.3032 42.3548 44.1154C42.5482 43.922 42.783 43.8336 43.0592 43.8502C43.3354 43.8668 43.584 43.9855 43.8049 44.2065C44.0232 44.4247 44.1392 44.6706 44.153 44.944C44.1696 45.2147 44.0798 45.4481 43.8837 45.6442C43.6848 45.8431 43.45 45.937 43.1793 45.9259C42.9059 45.9121 42.6587 45.7947 42.4377 45.5738Z" fill="#FBD03B"/>
</svg>
