<svg width="32" height="32" viewBox="0 0 32 32" fill="none" xmlns="http://www.w3.org/2000/svg">
<circle cx="16" cy="17" r="14" fill="#E0D7D1"/>
<circle cx="16" cy="16" r="14" fill="#FBFBFB"/>
<path fill-rule="evenodd" clip-rule="evenodd" d="M25 9V11H24.4649C23.7733 12.1956 22.4806 13 21 13C19.5194 13 18.2267 12.1956 17.5351 11H17V9C17 6.79086 18.7909 5 21 5C23.2091 5 25 6.79086 25 9Z" fill="#005A32"/>
<circle cx="21" cy="11" r="4" fill="#EAEAEA"/>
<path d="M19 12C19 10.3431 20.3431 9 22 9V9V12H19V12Z" fill="#FBD03B"/>
<path d="M19 12C19 10.3431 20.3431 9 22 9V9V12H19V12Z" fill="#FBD03B"/>
<path d="M22 10H23V12.5C23 12.7761 22.7761 13 22.5 13H22V10Z" fill="#F25656"/>
<path d="M22 12L22 13L20.5 13C20.2239 13 20 12.7761 20 12.5L20 12L22 12Z" fill="#05E682"/>
<path fill-rule="evenodd" clip-rule="evenodd" d="M25 13V15H24.4649C23.7733 16.1956 22.4806 17 21 17C19.5194 17 18.2267 16.1956 17.5351 15H17V13C17 10.7909 18.7909 9 21 9C23.2091 9 25 10.7909 25 13Z" fill="#005A32"/>
<circle cx="21" cy="15" r="4" fill="#EAEAEA"/>
<path d="M19 16C19 14.3431 20.3431 13 22 13V13V16H19V16Z" fill="#FBD03B"/>
<path d="M19 16C19 14.3431 20.3431 13 22 13V13V16H19V16Z" fill="#FBD03B"/>
<path d="M22 14H23V16.5C23 16.7761 22.7761 17 22.5 17H22V14Z" fill="#F25656"/>
<path d="M22 16L22 17L20.5 17C20.2239 17 20 16.7761 20 16.5L20 16L22 16Z" fill="#05E682"/>
<path fill-rule="evenodd" clip-rule="evenodd" d="M25 17V19H24.4649C23.7733 20.1956 22.4806 21 21 21C19.5194 21 18.2267 20.1956 17.5351 19H17V17C17 14.7909 18.7909 13 21 13C23.2091 13 25 14.7909 25 17Z" fill="#005A32"/>
<circle cx="21" cy="19" r="4" fill="#EAEAEA"/>
<path d="M19 20C19 18.3431 20.3431 17 22 17V17V20H19V20Z" fill="#FBD03B"/>
<path d="M19 20C19 18.3431 20.3431 17 22 17V17V20H19V20Z" fill="#FBD03B"/>
<path d="M22 18H23V20.5C23 20.7761 22.7761 21 22.5 21H22V18Z" fill="#F25656"/>
<path d="M22 20L22 21L20.5 21C20.2239 21 20 20.7761 20 20.5L20 20L22 20Z" fill="#05E682"/>
<path fill-rule="evenodd" clip-rule="evenodd" d="M8 9V11H8.53513C9.22675 12.1956 10.5194 13 12 13C13.4806 13 14.7733 12.1956 15.4649 11H16V9C16 6.79086 14.2091 5 12 5C9.79086 5 8 6.79086 8 9Z" fill="#005A32"/>
<circle r="4" transform="matrix(-1 0 0 1 12 11)" fill="#EAEAEA"/>
<path d="M14 12C14 10.3431 12.6569 9 11 9V9V12H14V12Z" fill="#FBD03B"/>
<path d="M14 12C14 10.3431 12.6569 9 11 9V9V12H14V12Z" fill="#FBD03B"/>
<path d="M11 10H10V12.5C10 12.7761 10.2239 13 10.5 13H11V10Z" fill="#F25656"/>
<path d="M11 12L11 13L12.5 13C12.7761 13 13 12.7761 13 12.5L13 12L11 12Z" fill="#05E682"/>
<path fill-rule="evenodd" clip-rule="evenodd" d="M25 21V23H24.4649C23.7733 24.1956 22.4806 25 21 25C19.5194 25 18.2267 24.1956 17.5351 23H17V21C17 18.7909 18.7909 17 21 17C23.2091 17 25 18.7909 25 21Z" fill="#005A32"/>
<circle cx="21" cy="23" r="4" fill="#EAEAEA"/>
<path d="M19 24C19 22.3431 20.3431 21 22 21V21V24H19V24Z" fill="#FBD03B"/>
<path d="M19 24C19 22.3431 20.3431 21 22 21V21V24H19V24Z" fill="#FBD03B"/>
<path d="M22 22H23V24.5C23 24.7761 22.7761 25 22.5 25H22V22Z" fill="#F25656"/>
<path d="M22 24L22 25L20.5 25C20.2239 25 20 24.7761 20 24.5L20 24L22 24Z" fill="#05E682"/>
<path fill-rule="evenodd" clip-rule="evenodd" d="M8 13V15H8.53513C9.22675 16.1956 10.5194 17 12 17C13.4806 17 14.7733 16.1956 15.4649 15H16V13C16 10.7909 14.2091 9 12 9C9.79086 9 8 10.7909 8 13Z" fill="#005A32"/>
<circle r="4" transform="matrix(-1 0 0 1 12 15)" fill="#EAEAEA"/>
<path d="M14 14C14 15.6569 12.6569 17 11 17V17V14H14V14Z" fill="#FBD03B"/>
<path d="M11 14H10V16.5C10 16.7761 10.2239 17 10.5 17H11V14Z" fill="#F25656"/>
<path d="M12 14L12 13L13.5 13C13.7761 13 14 13.2239 14 13.5L14 14L12 14Z" fill="#05E682"/>
<path d="M12 14L12 13L10.5 13C10.2239 13 10 13.2239 10 13.5L10 14L12 14Z" fill="#657DAC"/>
<path d="M22 21H22.5C22.7761 21 23 21.2239 23 21.5V22H22V21Z" fill="#657DAC"/>
<path d="M4 3H5V28H4V3Z" fill="#A76F53"/>
<path d="M6 3H7V28H6V3Z" fill="#A76F53"/>
<path d="M8 24H16L14 26H10L8 24Z" fill="#FFC6A9"/>
<rect x="8" y="19" width="8" height="5" fill="#FF9E59"/>
<path d="M9 22.5C9 22.2239 9.22386 22 9.5 22H10.5C10.7761 22 11 22.2239 11 22.5C11 22.7761 10.7761 23 10.5 23H9.5C9.22386 23 9 22.7761 9 22.5Z" fill="#FF602E"/>
<path d="M13 22.5C13 22.2239 13.2239 22 13.5 22H14.5C14.7761 22 15 22.2239 15 22.5C15 22.7761 14.7761 23 14.5 23H13.5C13.2239 23 13 22.7761 13 22.5Z" fill="#FFDB5D"/>
<path d="M11 20.5C11 20.2239 11.2239 20 11.5 20H12.5C12.7761 20 13 20.2239 13 20.5C13 20.7761 12.7761 21 12.5 21H11.5C11.2239 21 11 20.7761 11 20.5Z" fill="#FFDB5D"/>
</svg>
