<svg width="32" height="32" viewBox="0 0 32 32" fill="none" xmlns="http://www.w3.org/2000/svg">
<path d="M20.9603 8.19598C20.9865 7.96804 21 7.73575 21 7.5C21 4.46243 18.7614 2 16 2C13.2386 2 11 4.46243 11 7.5C11 7.73575 11.0135 7.96804 11.0397 8.19598C8.71089 8.83571 7 10.9681 7 13.5C7 14.0881 7.09231 14.6547 7.26324 15.186C4.81001 15.8284 3 18.0603 3 20.7149C3 23.4391 4.92283 25.7846 7.59412 26.3188L13.4505 27.4901C15.1335 27.8267 16.8665 27.8267 18.5495 27.4901L24.4059 26.3188C27.0772 25.7846 29 23.4391 29 20.7149C29 18.0603 27.19 15.8284 24.7368 15.186C24.9077 14.6547 25 14.0881 25 13.5C25 10.9681 23.2891 8.83571 20.9603 8.19598Z" fill="#0BCD77"/>
<path d="M16.7778 24.4444L17 30H15L15.1833 25.4167L9 21L15.2528 23.6798L15.4961 17.5969L11 14L15.5526 16.1852L16 5L16.3689 14.2229L21 12L16.4264 15.6589L16.7079 22.6966L23 20L16.7778 24.4444Z" fill="#05E682"/>
</svg>
