<svg width="64" height="32" viewBox="0 0 64 32" fill="none" xmlns="http://www.w3.org/2000/svg">
<path d="M16.2458 28L11.138 18.8929L13.6797 28C12.2564 28 11.0259 27.007 10.7254 25.6157L8.26164 14.2112C8.12707 13.5882 8.60177 13 9.2391 13H10.7575L15.8507 22.1071L14.7971 15.0035C14.6336 13.9011 15.4027 12.8778 16.5071 12.7282L18.1924 12.5V28H16.2458Z" fill="#657DAC"/>
<path fill-rule="evenodd" clip-rule="evenodd" d="M18.9039 28H21.3334L22.0352 25.514C22.1568 25.0832 22.5499 24.7857 22.9976 24.7857H26.2406C26.6883 24.7857 27.0814 25.0832 27.203 25.514L27.9048 28H30.3928L28.5543 14.7256C28.4173 13.7365 27.4985 12.5 26.5 12.5H22.5C21.5023 12.5 20.8949 13.7354 20.757 14.7235L18.9039 28ZM26.251 22.15L25.5887 19.8087C25.3142 18.8383 23.9387 18.8383 23.6642 19.8087L23.0019 22.15H26.251Z" fill="#657DAC"/>
<path d="M31.0899 28H33.3145V19.1929L36.0978 25.8921C36.2292 26.2083 36.5379 26.4143 36.8802 26.4143V26.4143C37.1902 26.4143 37.4755 26.2449 37.624 25.9727L41.4264 19L39.292 28C40.7355 28 42.0038 27.0423 42.3989 25.6539L45.6375 14.2737C45.8193 13.6351 45.3396 13 44.6757 13H40.6615L36.8856 22.3214L35.7265 14.5236C35.593 13.6256 34.8714 12.9302 33.9691 12.8299L31 12.5L31.0899 28Z" fill="#657DAC"/>
<path d="M47.3352 25.9948C46.8958 25.9948 46.4627 25.9501 46.0358 25.8606C45.8833 25.8287 45.7412 25.7933 45.6095 25.7545C45.253 25.6494 45.1146 25.2501 45.2637 24.9097C45.4346 24.5197 45.9112 24.3641 46.3227 24.4737C46.3583 24.4831 46.3945 24.4922 46.4313 24.501C46.7577 24.5785 47.0747 24.6173 47.3823 24.6173C47.6271 24.6173 47.7966 24.5994 47.8908 24.5636C47.9912 24.5218 48.0414 24.4622 48.0414 24.3847C48.0414 24.3072 47.9787 24.2535 47.8531 24.2237C47.7338 24.1939 47.5361 24.164 47.2599 24.1342C46.8393 24.0865 46.4815 24.0269 46.1864 23.9553C45.8914 23.8778 45.6309 23.7317 45.4049 23.517C45.1852 23.3023 45.0753 22.9952 45.0753 22.5957C45.0753 21.7631 45.7646 21.1675 46.5095 20.7957C47.3873 20.3575 48.5644 19.8673 49.1667 20.033C49.3699 20.0889 49.5528 20.2619 49.6951 20.4407C49.9209 20.7246 49.9151 21.1137 49.7677 21.4451C49.4756 22.1016 48.675 22.3511 47.9578 22.3071C47.8861 22.3027 47.8135 22.3005 47.7401 22.3005C47.2756 22.3005 47.0433 22.378 47.0433 22.533C47.0433 22.6106 47.1061 22.6672 47.2316 22.703C47.3572 22.7328 47.5549 22.7626 47.8249 22.7925C48.2455 22.8402 48.6001 22.9028 48.8889 22.9803C49.1839 23.0578 49.4413 23.2039 49.661 23.4186C49.887 23.6333 50 23.9404 50 24.34C50 24.6441 49.8996 24.9214 49.6987 25.1719C49.4978 25.4223 49.1965 25.6221 48.7947 25.7712C48.393 25.9203 47.9065 25.9948 47.3352 25.9948Z" fill="#657DAC"/>
<path d="M47 14L53.614 14.8268C54.294 14.9117 54.6889 15.6399 54.3893 16.2562L53.954 17.1518C53.8255 17.416 53.5805 17.6046 53.2921 17.6611V17.6611C50.6994 18.1691 48.2115 19.1124 45.9338 20.4512L45 21L47 14Z" fill="#657DAC"/>
<path d="M27.9411 5.48371C27.9796 5.32882 28 5.16679 28 5C28 3.89543 27.1046 3 26 3C24.8954 3 24 3.89543 24 5C24 5.20372 24.0305 5.40033 24.0871 5.58552C23.5857 5.65148 23.0864 5.73808 22.5903 5.84533L10.7937 8.39595V8.39595C8.18289 8.96046 10.2419 11.8788 12.9092 11.7346L26.5 11L40.0908 11.7346C42.7581 11.8788 44.8171 8.96046 42.2063 8.39595V8.39595L30.4097 5.84533C29.5939 5.66894 28.7691 5.5484 27.9411 5.48371Z" fill="#F25656"/>
</svg>
