<svg width="64" height="64" viewBox="0 0 64 64" fill="none" xmlns="http://www.w3.org/2000/svg">
<circle cx="33" cy="33" r="29" fill="#9B9285" fill-opacity="0.2"/>
<circle cx="32" cy="32" r="28" fill="#9F1F1F"/>
<circle cx="32" cy="37" r="23" fill="#921C1C"/>
<circle cx="32" cy="43" r="17" fill="#771616"/>
<circle cx="32" cy="49" r="11" fill="#681414"/>
<path fill-rule="evenodd" clip-rule="evenodd" d="M18 56.2541L18 54.6364C18 46.0006 24.9396 39 33.5 39C41.9337 39 48.7942 45.7949 48.9955 54.2539C44.2827 57.8585 38.3914 60 32 60C26.9 60 22.1184 58.6365 18 56.2541Z" fill="#677E09"/>
<path d="M30 35H36V41C36 42.6569 34.6569 44 33 44V44C31.3431 44 30 42.6569 30 41V35Z" fill="#FFB38D"/>
<path d="M25 26C25 21.5817 28.5817 18 33 18C37.4183 18 41 21.5817 41 26V32C41 36.4183 37.4183 40 33 40C28.5817 40 25 36.4183 25 32V26Z" fill="#FFC6A9"/>
<path d="M40 27.4545C40 26.6512 40.6716 26 41.5 26C42.3284 26 43 26.6512 43 27.4545V28.5455C43 29.3488 42.3284 30 41.5 30C40.6716 30 40 29.3488 40 28.5455V27.4545Z" fill="#FFC6A9"/>
<path d="M23 27.4545C23 26.6512 23.6716 26 24.5 26C25.3284 26 26 26.6512 26 27.4545V28.5455C26 29.3488 25.3284 30 24.5 30C23.6716 30 23 29.3488 23 28.5455V27.4545Z" fill="#FFC6A9"/>
<path d="M29 26C28.4477 26 28 26.4477 28 27H30C30 26.4477 29.5523 26 29 26Z" fill="#845842"/>
<path d="M37 26C36.4477 26 36 26.4477 36 27H38C38 26.4477 37.5523 26 37 26Z" fill="#845842"/>
<path d="M33 33C31.687 33 30.5711 33.8435 30.1644 35.0181C29.9837 35.54 30.4477 36 31 36L35 36C35.5523 36 36.0163 35.54 35.8356 35.0181C35.4289 33.8435 34.313 33 33 33Z" fill="#9F1F1F"/>
<path d="M25 26V30H41V26C41 21.5817 37.4183 18 33 18C28.5817 18 25 21.5817 25 26Z" fill="#657DAC"/>
<rect x="27" y="22" width="1" height="6" rx="0.5" fill="#3F5684"/>
<rect x="29" y="21" width="1" height="6" rx="0.5" fill="#3F5684"/>
<rect x="25" y="21" width="1" height="6" rx="0.5" fill="#3F5684"/>
<path d="M33 12C28.0908 12 24.1111 15.5817 24.1111 20V22H41.8889V20C41.8889 15.5817 37.9092 12 33 12Z" fill="#845842"/>
<path d="M23 21C23 20.4477 23.4975 20 24.1111 20H41.8889C42.5025 20 43 20.4477 43 21V23C43 23.5523 42.5025 24 41.8889 24H24.1111C23.4975 24 23 23.5523 23 23V21Z" fill="#845842"/>
<rect x="31" y="25" width="4" height="1" fill="#3D3B38"/>
<path fill-rule="evenodd" clip-rule="evenodd" d="M28 30C30.2091 30 32 28.2091 32 26C32 23.7909 30.2091 22 28 22C25.7909 22 24 23.7909 24 26C24 28.2091 25.7909 30 28 30ZM28 29C29.6569 29 31 27.6569 31 26C31 24.3431 29.6569 23 28 23C26.3431 23 25 24.3431 25 26C25 27.6569 26.3431 29 28 29Z" fill="#3D3B38"/>
<path fill-rule="evenodd" clip-rule="evenodd" d="M38 30C40.2091 30 42 28.2091 42 26C42 23.7909 40.2091 22 38 22C35.7909 22 34 23.7909 34 26C34 28.2091 35.7909 30 38 30ZM38 29C39.6569 29 41 27.6569 41 26C41 24.3431 39.6569 23 38 23C36.3431 23 35 24.3431 35 26C35 27.6569 36.3431 29 38 29Z" fill="#3D3B38"/>
<path fill-rule="evenodd" clip-rule="evenodd" d="M35.4896 35.869C34.8064 35.325 33.9412 35 33 35C32.0589 35 31.1936 35.325 30.5104 35.869C30.6518 35.9518 30.8213 36 31 36L35 36C35.1787 36 35.3482 35.9518 35.4896 35.869Z" fill="#F25656"/>
<path d="M39 33.5C39 34.0523 38.5523 34.5 38 34.5C37.4477 34.5 37 34.0523 37 33.5C37 32.9477 38 30 38 30C38 30 39 32.9477 39 33.5Z" fill="#56C4F5"/>
</svg>
