<svg width="32" height="32" viewBox="0 0 32 32" fill="none" xmlns="http://www.w3.org/2000/svg">
<path d="M9 7H22L19 12H6L9 7Z" fill="#FBFBFB"/>
<path d="M9 5H23V7H9V5Z" fill="#FBFBFB"/>
<path d="M26 12L23 7H22L19 12H6V29H26V12Z" fill="#DADADA"/>
<path d="M6 12H19V29H6V12Z" fill="#EAEAEA"/>
<mask id="mask0_8_192" style="mask-type:alpha" maskUnits="userSpaceOnUse" x="6" y="5" width="20" height="24">
<path d="M9 7H22L19 12H6L9 7Z" fill="#FBFBFB"/>
<path d="M9 5H23V7H9V5Z" fill="#FBFBFB"/>
<path d="M26 12L23 7H22L19 12H6V29H26V12Z" fill="#DADADA"/>
<path d="M6 12H19V29H6V12Z" fill="#EAEAEA"/>
</mask>
<g mask="url(#mask0_8_192)">
<path d="M9.5 17C5.1 17 4 19.4 4 20.6V29H26V20.6C25.8333 19.4 24.8 17 22 17C18.5 17 21 20.6 17 20.6C13 20.6 15 17 9.5 17Z" fill="#56C4F5"/>
</g>
<path fill-rule="evenodd" clip-rule="evenodd" d="M19 20.0165V29H26V20.6C25.8333 19.4 24.8 17 22 17C20.3084 17 20.0184 17.8409 19.7186 18.7099C19.5565 19.1802 19.3914 19.6586 19 20.0165Z" fill="#6694E1"/>
</svg>
