<svg width="32" height="32" viewBox="0 0 32 32" fill="none" xmlns="http://www.w3.org/2000/svg">
<circle cx="16" cy="17" r="14" fill="#E0D7D1"/>
<circle cx="16" cy="16" r="14" fill="#FBFBFB"/>
<path fill-rule="evenodd" clip-rule="evenodd" d="M17 8C17 9.65685 15.6569 11 14 11C12.3431 11 11 9.65685 11 8C11 6.34315 12.3431 5 14 5C15.6569 5 17 6.34315 17 8ZM23 14C24.6569 14 26 12.6569 26 11C26 9.34315 24.6569 8 23 8C21.3431 8 20 9.34315 20 11C20 12.6569 21.3431 14 23 14ZM16 13C18.1002 13 19.9483 14.079 21.0203 15.7129C21.5676 16.5472 23.0022 17 24 17V17C25.6569 17 27 18.3431 27 20C27 21.2473 26.2388 22.3168 25.1556 22.7693C25.0624 22.8083 25 22.899 25 23V23C25 25.7614 22.7614 28 20 28C18.0156 28 16.3012 26.8439 15.4935 25.1686C15.4352 25.0478 15.3203 24.9634 15.1874 24.9454C15.0062 24.9209 14.8275 24.8883 14.6518 24.8479C14.3982 24.7897 14 25.2398 14 25.5V25.5C14 26.3284 13.3284 27 12.5 27C11.6716 27 11 26.3284 11 25.5C11 25.3545 11.0207 25.2138 11.0594 25.0808C11.0709 25.041 11.0415 25 11 25V25C8.23858 25 6 22.7614 6 20C6 17.2386 8.23858 15 11 15V15C11.3178 15 11.6265 14.8802 11.8563 14.6607C12.9334 13.6318 14.3929 13 16 13ZM7 16C8.65685 16 10 14.6569 10 13C10 12.3306 9.78076 11.7124 9.41018 11.2133C9.07247 10.7585 9 10.0665 9 9.5V9.5C9 8.67157 8.32843 8 7.5 8C6.67157 8 6 8.67157 6 9.5V9.5C6 9.84114 5.84079 10.2111 5.54273 10.3771C4.62252 10.8895 4 11.872 4 13C4 14.6569 5.34315 16 7 16Z" fill="#845842"/>
<circle cx="18" cy="10" r="6" fill="#FBD03B"/>
<path d="M18 12C18 15.3137 15.3137 18 12 18C8.68629 18 6 15.3137 6 12C6 8.68629 8.68629 6 12 6C15.3137 6 18 8.68629 18 12Z" fill="#FBD03B"/>
<path d="M17 12C17 14.7614 14.7614 17 12 17C9.23858 17 7 14.7614 7 12C7 9.23858 9.23858 7 12 7C14.7614 7 17 9.23858 17 12Z" fill="#EFC531"/>
<path d="M16 12C16 14.2091 14.2091 16 12 16C9.79086 16 8 14.2091 8 12C8 9.79086 9.79086 8 12 8C14.2091 8 16 9.79086 16 12Z" fill="#FBD03B"/>
<path d="M15 12C15 13.6569 13.6569 15 12 15C10.3431 15 9 13.6569 9 12C9 10.3431 10.3431 9 12 9C13.6569 9 15 10.3431 15 12Z" fill="#EFC531"/>
<path d="M14 12C14 13.1046 13.1046 14 12 14C10.8954 14 10 13.1046 10 12C10 10.8954 10.8954 10 12 10C13.1046 10 14 10.8954 14 12Z" fill="#FBD03B"/>
<path d="M29 16C29 19.3137 26.3137 22 23 22C19.6863 22 17 19.3137 17 16C17 12.6863 19.6863 10 23 10C26.3137 10 29 12.6863 29 16Z" fill="#FBD03B"/>
<path d="M28 16C28 18.7614 25.7614 21 23 21C20.2386 21 18 18.7614 18 16C18 13.2386 20.2386 11 23 11C25.7614 11 28 13.2386 28 16Z" fill="#EFC531"/>
<path d="M27 16C27 18.2091 25.2091 20 23 20C20.7909 20 19 18.2091 19 16C19 13.7909 20.7909 12 23 12C25.2091 12 27 13.7909 27 16Z" fill="#FBD03B"/>
<path d="M26 16C26 17.6569 24.6569 19 23 19C21.3431 19 20 17.6569 20 16C20 14.3431 21.3431 13 23 13C24.6569 13 26 14.3431 26 16Z" fill="#EFC531"/>
<path d="M25 16C25 17.1046 24.1046 18 23 18C21.8954 18 21 17.1046 21 16C21 14.8954 21.8954 14 23 14C24.1046 14 25 14.8954 25 16Z" fill="#FBD03B"/>
<path d="M15 18C15 21.3137 12.3137 24 9 24C5.68629 24 3 21.3137 3 18C3 14.6863 5.68629 12 9 12C12.3137 12 15 14.6863 15 18Z" fill="#FBD03B"/>
<path d="M14 18C14 20.7614 11.7614 23 9 23C6.23858 23 4 20.7614 4 18C4 15.2386 6.23858 13 9 13C11.7614 13 14 15.2386 14 18Z" fill="#EFC531"/>
<path d="M13 18C13 20.2091 11.2091 22 9 22C6.79086 22 5 20.2091 5 18C5 15.7909 6.79086 14 9 14C11.2091 14 13 15.7909 13 18Z" fill="#FBD03B"/>
<path d="M12 18C12 19.6569 10.6569 21 9 21C7.34315 21 6 19.6569 6 18C6 16.3431 7.34315 15 9 15C10.6569 15 12 16.3431 12 18Z" fill="#EFC531"/>
<path d="M11 18C11 19.1046 10.1046 20 9 20C7.89543 20 7 19.1046 7 18C7 16.8954 7.89543 16 9 16C10.1046 16 11 16.8954 11 18Z" fill="#FBD03B"/>
<path d="M23 22C23 25.3137 20.3137 28 17 28C13.6863 28 11 25.3137 11 22C11 18.6863 13.6863 16 17 16C20.3137 16 23 18.6863 23 22Z" fill="#FBD03B"/>
<path d="M22 22C22 24.7614 19.7614 27 17 27C14.2386 27 12 24.7614 12 22C12 19.2386 14.2386 17 17 17C19.7614 17 22 19.2386 22 22Z" fill="#EFC531"/>
<path d="M21 22C21 24.2091 19.2091 26 17 26C14.7909 26 13 24.2091 13 22C13 19.7909 14.7909 18 17 18C19.2091 18 21 19.7909 21 22Z" fill="#FBD03B"/>
<path d="M20 22C20 23.6569 18.6569 25 17 25C15.3431 25 14 23.6569 14 22C14 20.3431 15.3431 19 17 19C18.6569 19 20 20.3431 20 22Z" fill="#EFC531"/>
<path d="M19 22C19 23.1046 18.1046 24 17 24C15.8954 24 15 23.1046 15 22C15 20.8954 15.8954 20 17 20C18.1046 20 19 20.8954 19 22Z" fill="#FBD03B"/>
<path d="M17.9074 4C17.2406 4 16.5992 4.10877 16 4.30953V5.5C16 6.32843 16.6716 7 17.5 7C18.3261 7 18.9963 6.33212 19 5.50684V7.5C19 8.32843 19.6716 9 20.5 9C21.3284 9 22 8.32843 22 7.5V6C22 6.94896 22.6609 7.74356 23.5475 7.94861C22.7095 5.64511 20.5006 4 17.9074 4Z" fill="#B69A9A"/>
<path fill-rule="evenodd" clip-rule="evenodd" d="M6.09262 10.944C6.59157 8.1339 9.04658 6 12 6C15.2017 6 17.8177 8.50781 17.9909 11.6663C17.9081 12.4165 17.2722 13 16.5 13C15.6716 13 15 12.3284 15 11.5V10C15 11.1046 14.1046 12 13 12C11.8954 12 11 11.1046 11 10V11.5C11 11.7818 10.9223 12.0454 10.7871 12.2707C12.7321 12.8767 14.2524 14.4459 14.7898 16.4202C15.4738 16.149 16.2195 16 17 16C17 12.6863 19.6863 10 23 10C24.4235 10 25.7312 10.4957 26.7599 11.324V15.5C26.7599 16.3284 26.0884 17 25.2599 17C24.4315 17 23.76 16.3284 23.76 15.5V14C23.76 15.1046 22.8645 16 21.76 16C20.6554 16 19.76 15.1046 19.76 14V15.5C19.76 15.8806 19.6182 16.2281 19.3846 16.4926C19.7804 16.6641 20.154 16.8771 20.5 17.126V19C20.5 19.8284 19.8284 20.5 19 20.5C18.6142 20.5 18.2625 20.3544 17.9967 20.1151C17.9371 21.1661 17.0659 22 16 22C15.6357 22 15.2942 21.9026 15 21.7324V22.5C15 23.3284 14.3284 24 13.5 24C12.6716 24 12 23.3284 12 22.5V19C12 20.1046 11.1046 21 10 21C8.89543 21 8 20.1046 8 19V15.5C8 16.3284 7.32843 17 6.5 17C5.67157 17 5 16.3284 5 15.5V13.5278C5.85267 12.7646 6.9249 12.2417 8.11025 12.0655C8.03916 11.891 7.99999 11.7001 7.99999 11.5V9.50684C7.9963 10.3321 7.32615 11 6.5 11C6.3588 11 6.22216 10.9805 6.09262 10.944ZM12 18.5C12 18.5569 12.0032 18.613 12.0093 18.6682L12 18.6822V18.5Z" fill="#B69A9A"/>
<path d="M9 14C10.1046 14 11 14.8954 11 16H9V14Z" fill="#845842"/>
<path d="M14 9C15.1046 9 16 9.89543 16 11H14V9Z" fill="#845842"/>
<path d="M15 19C15.5523 19 16 19.4477 16 20H15V19Z" fill="#845842"/>
<path d="M18 18C18.5523 18 19 17.5523 19 17H18V18Z" fill="#845842"/>
<path d="M12 9C12.5523 9 13 8.55228 13 8H12V9Z" fill="#845842"/>
<path d="M9 10C9.55228 10 10 9.55228 10 9H9V10Z" fill="#845842"/>
<path d="M10 18C10.5523 18 11 17.5523 11 17H10V18Z" fill="#845842"/>
<path d="M20 8C20.5523 8 21 7.55228 21 7H20V8Z" fill="#845842"/>
<path d="M23 13C21.8954 13 21 13.8954 21 15H23V13Z" fill="#845842"/>
<path d="M8 13C6.89543 13 6 13.8954 6 15H8V13Z" fill="#845842"/>
<path d="M24 11C24.5523 11 25 11.4477 25 12H24V11Z" fill="#845842"/>
</svg>
