<svg width="32" height="32" viewBox="0 0 32 32" fill="none" xmlns="http://www.w3.org/2000/svg">
<path d="M12.4471 16.9486C12.7677 15.2389 14.2605 14 16 14C17.7395 14 19.2323 15.2389 19.5529 16.9486L20.8943 24.1028C21.4689 27.1673 19.1179 30 16 30C12.8821 30 10.5311 27.1673 11.1057 24.1028L12.4471 16.9486Z" fill="#C4C4C4"/>
<path d="M4 14.5C4 10.6936 8.08178 6.70169 11.191 4.50583C12.5296 3.56044 14.195 3 16 3C17.805 3 19.4704 3.56044 20.809 4.50583C23.9182 6.7017 28 10.6936 28 14.5C28 16.9853 25.9853 19 23.5 19H8.5C6.01472 19 4 16.9853 4 14.5Z" fill="#A76F53"/>
</svg>
