<svg width="32" height="32" viewBox="0 0 32 32" fill="none" xmlns="http://www.w3.org/2000/svg">
<circle cx="16" cy="17" r="14" fill="#E0D7D1"/>
<circle cx="16" cy="16" r="14" fill="#56C4F5"/>
<ellipse cx="16" cy="15" rx="14" ry="13" fill="#FBFBFB"/>
<ellipse cx="16" cy="15" rx="12" ry="11" fill="#657DAC"/>
<path d="M14.9091 18.4255C14.9091 17.8419 14.9621 17.3428 15.0682 16.9282C15.1894 16.4982 15.3864 16.0912 15.6591 15.7073C15.947 15.3234 16.3333 14.9241 16.8182 14.5095C17.4091 14.0027 17.8636 13.5804 18.1818 13.2425C18.5152 12.9047 18.75 12.5745 18.8864 12.252C19.0227 11.9295 19.0909 11.5379 19.0909 11.0772C19.0909 10.3401 18.8561 9.77191 18.3864 9.37263C17.9167 8.97335 17.2348 8.77371 16.3409 8.77371C15.5985 8.77371 14.9394 8.87353 14.3636 9.07317C14.0898 9.16081 13.8212 9.25713 13.5576 9.36214C13.0851 9.55042 12.5344 9.35168 12.3307 8.88556V8.88556C12.1441 8.45847 12.3164 7.95601 12.7448 7.77246C13.141 7.60274 13.5594 7.45275 14 7.32249C14.7424 7.1075 15.5682 7 16.4773 7C17.9167 7 19.0303 7.36089 19.8182 8.08266C20.6061 8.80443 21 9.78726 21 11.0312C21 11.7222 20.8864 12.3135 20.6591 12.8049C20.447 13.2809 20.1364 13.7263 19.7273 14.1409C19.3333 14.5402 18.8636 14.9702 18.3182 15.4309C17.8182 15.8609 17.4318 16.2371 17.1591 16.5596C16.9015 16.8821 16.7273 17.2046 16.6364 17.5271C16.5455 17.8342 16.5 18.2105 16.5 18.6558V18.6558C16.5 18.8721 16.3247 19.0474 16.1084 19.0474H15.531C15.1875 19.0474 14.9091 18.769 14.9091 18.4255V18.4255ZM14.3864 22.4336C14.3864 21.8654 14.5152 21.4661 14.7727 21.2358C15.0455 21.0054 15.3864 20.8902 15.7955 20.8902C16.1742 20.8902 16.5 21.0054 16.7727 21.2358C17.0455 21.4661 17.1818 21.8654 17.1818 22.4336C17.1818 22.9864 17.0455 23.3857 16.7727 23.6314C16.5 23.8771 16.1742 24 15.7955 24C15.3864 24 15.0455 23.8771 14.7727 23.6314C14.5152 23.3857 14.3864 22.9864 14.3864 22.4336Z" fill="white"/>
</svg>
