<svg width="32" height="32" viewBox="0 0 32 32" fill="none" xmlns="http://www.w3.org/2000/svg">
<circle cx="16" cy="17" r="14" fill="#E0D7D1"/>
<circle cx="16" cy="16" r="14" fill="#FBFBFB"/>
<ellipse cx="16" cy="16.5" rx="4" ry="2.5" fill="#EFE3DD"/>
<path d="M15 17L15 14L17.0524 14C17.6847 14 18.246 14.3414 18.4459 14.8474C18.518 15.03 18.6395 15.1958 18.8007 15.3319L19 15.5L18.8007 15.6681C18.6395 15.8042 18.518 15.97 18.4459 16.1526C18.246 16.6586 17.6847 17 17.0524 17L15 17Z" fill="#FFBB6C"/>
<path d="M14.8909 18C14.2884 18 13.8 17.3895 13.8 16.6364L13.8 14.3636C13.8 13.6105 14.2884 13 14.8909 13C14.9512 13 15 13.0611 15 13.1364L15 17.8636C15 17.9389 14.9512 18 14.8909 18Z" fill="#A76F53"/>
<path d="M13 16L13 15L13.8 15.5L13 16Z" fill="#A76F53"/>
<path d="M7 8.5C7 8.22386 6.77614 8 6.5 8V8C6.22386 8 6 8.22386 6 8.5V11C6 12.1046 6.89543 13 8 13V13L7.11504 24.5044C7.05299 25.3112 7.69087 26 8.5 26V26C9.30913 26 9.94701 25.3112 9.88496 24.5044L9 13V13C10.1046 13 11 12.1046 11 11V8.5C11 8.22386 10.7761 8 10.5 8V8C10.2239 8 10 8.22386 10 8.5V11H9V8.5C9 8.22386 8.77614 8 8.5 8V8C8.22386 8 8 8.22386 8 8.5V11H7V8.5Z" fill="#C4C4C4"/>
<path d="M21 9.5C21 8.11929 22.1193 7 23.5 7C24.8807 7 26 8.11929 26 9.5V10.5C26 11.7095 25.1411 12.7184 24 12.95V13L24.885 24.5044C24.947 25.3112 24.3091 26 23.5 26C22.6909 26 22.053 25.3112 22.115 24.5044L23 13V12.95C21.8589 12.7184 21 11.7095 21 10.5V9.5Z" fill="#C4C4C4"/>
</svg>
