<svg width="32" height="32" viewBox="0 0 32 32" fill="none" xmlns="http://www.w3.org/2000/svg">
<circle cx="16" cy="17" r="14" fill="#E0D7D1"/>
<circle cx="16" cy="16" r="14" fill="#FBFBFB"/>
<ellipse cx="16" cy="16.5" rx="12" ry="11.5" fill="#F1A40F"/>
<ellipse cx="16" cy="15.5" rx="12" ry="11.5" fill="#FFC01D"/>
<path d="M13.364 22.2426L9.12132 18C7.94975 19.1716 7.94975 21.0711 9.12132 22.2426C10.2929 23.4142 12.1924 23.4142 13.364 22.2426Z" fill="#FBD03B"/>
<path d="M11 17V11C9.34315 11 8 12.3431 8 14C8 15.6569 9.34315 17 11 17Z" fill="#FBD03B"/>
<path d="M20.1213 25.364L24.364 21.1213C23.1924 19.9497 21.2929 19.9497 20.1213 21.1213C18.9498 22.2929 18.9498 24.1924 20.1213 25.364Z" fill="#FBD03B"/>
<path d="M21 15.1213L25.2426 19.364C26.4142 18.1924 26.4142 16.2929 25.2426 15.1213C24.0711 13.9498 22.1716 13.9498 21 15.1213Z" fill="#FBD03B"/>
<path d="M19 8L19 14C20.6569 14 22 12.6569 22 11C22 9.34315 20.6569 8 19 8Z" fill="#FBD03B"/>
<path d="M14 14L14 20C15.6569 20 17 18.6569 17 17C17 15.3431 15.6569 14 14 14Z" fill="#FBD03B"/>
<path d="M15.5607 5.81802L11.318 10.0607C12.4896 11.2322 14.3891 11.2322 15.5607 10.0607C16.7322 8.88908 16.7322 6.98959 15.5607 5.81802Z" fill="#FBD03B"/>
<path d="M16.7574 10L14 12.7574C14.7614 13.5188 15.9959 13.5188 16.7574 12.7574C17.5188 11.9959 17.5188 10.7614 16.7574 10Z" fill="#F1A40F"/>
<path d="M18 19.9497L21.8995 19.9497C21.8995 18.8729 21.0265 18 19.9497 18C18.8729 18 18 18.8729 18 19.9497Z" fill="#F1A40F"/>
<path d="M13.8336 23.4517L16.8009 25.9817C17.4995 25.1623 17.4016 23.9317 16.5823 23.233C15.7629 22.5344 14.5322 22.6323 13.8336 23.4517Z" fill="#F1A40F"/>
<path d="M9.24678 6.83088L7.29704 10.2079C8.22959 10.7463 9.42203 10.4268 9.96044 9.49428C10.4988 8.56173 10.1793 7.36929 9.24678 6.83088Z" fill="#F1A40F"/>
<path d="M23 9.50464L24.0093 13.2712C25.0494 12.9925 25.6666 11.9234 25.3879 10.8833C25.1092 9.84319 24.0401 9.22594 23 9.50464Z" fill="#F1A40F"/>
<path d="M7.89257 15.5046L6.88331 19.2712C5.84318 18.9925 5.22593 17.9234 5.50463 16.8833C5.78333 15.8432 6.85244 15.2259 7.89257 15.5046Z" fill="#F1A40F"/>
<path d="M19 16C19.5523 16 20 15.5523 20 15L19 15L19 16Z" fill="#0BCD77"/>
<path d="M11 19C11.5523 19 12 18.5523 12 18L11 18L11 19Z" fill="#0BCD77"/>
<path d="M19 8C18.4477 8 18 7.55228 18 7L19 7L19 8Z" fill="#0BCD77"/>
<path d="M12 7C11.4477 7 11 7.44772 11 8L12 8L12 7Z" fill="#0BCD77"/>
<path d="M7 13C6.44772 13 6 13.4477 6 14L7 14L7 13Z" fill="#0BCD77"/>
<path d="M19 24C18.4477 24 18 23.5523 18 23L19 23L19 24Z" fill="#0BCD77"/>
<path d="M24 21C24.5523 21 25 20.5523 25 20L24 20L24 21Z" fill="#0BCD77"/>
<path d="M26 14C25.4477 14 25 14.4477 25 15L26 15L26 14Z" fill="#0BCD77"/>
<path d="M12 23C11.4477 23 11 23.4477 11 24L12 24L12 23Z" fill="#0BCD77"/>
</svg>
