<svg width="32" height="32" viewBox="0 0 32 32" fill="none" xmlns="http://www.w3.org/2000/svg">
<path d="M23 2H11C9.89543 2 9.36967 2.80217 10.0307 3.68714C10.8987 4.84937 12 6.49706 12 8.75862C12 12.4913 11 13.5862 9 15.5172C7 17.4483 6 18.7593 6 22.7586C6 26.7579 7.34315 30 9 30H21C22.1046 30 22.6447 29.1899 22.0124 28.2842C21.1382 27.0318 20 25.222 20 22.7586C20 18.7593 21 17.4483 23 15.5172C25 13.5862 26 12.4913 26 8.75862C26 5.02594 24.6569 2 23 2Z" fill="#FBD03B"/>
<path d="M11 2C11 2.32551 11.341 2.77545 11.793 3.37197C12.6818 4.54484 14 6.28434 14 8.75862C14 12.4913 13 13.5862 11 15.5172C9 17.4483 8 18.7593 8 22.7586C8 26.7579 9.34315 30 11 30H13C14.1046 30 14.6604 29.2096 14.0418 28.3261C13.1639 27.0723 12 25.2496 12 22.7586C12 18.7593 13 17.4483 15 15.5172C17 13.5862 18 12.4913 18 8.75862C18 5.02594 16.6569 2 15 2H11Z" fill="#FFDB5D"/>
<path d="M20 2C20 2.32551 20.341 2.77545 20.793 3.37197C21.6818 4.54484 23 6.28434 23 8.75862C23 12.4913 22 13.5862 20 15.5172C18 17.4483 17 18.7593 17 22.7586C17 26.7579 18.3431 30 20 30H21C22.1046 30 22.6604 29.2096 22.0418 28.3261C21.1639 27.0723 20 25.2496 20 22.7586C20 18.7593 21 17.4483 23 15.5172C25 13.5862 26 12.4913 26 8.75862C26 5.02594 24.6569 2 23 2H20Z" fill="#FFDB5D"/>
</svg>
