<svg width="32" height="32" viewBox="0 0 32 32" fill="none" xmlns="http://www.w3.org/2000/svg">
<circle cx="16" cy="17" r="14" fill="#E0D7D1"/>
<circle cx="16" cy="16" r="14" fill="#FBFBFB"/>
<circle cx="16" cy="16" r="13" fill="#FFBB6C"/>
<circle cx="16" cy="16" r="11" fill="#F25656"/>
<path d="M16.2016 7.56011C16.5615 6.61247 17.5879 6.07273 18.5882 6.34074C18.6549 6.35861 18.7199 6.37965 18.783 6.40364C19.7307 6.7636 20.2704 7.78998 20.0024 8.79023L19.8637 9.30788L20.2426 8.92894C21.0237 8.14789 22.29 8.14789 23.0711 8.92894C23.8521 9.70999 23.8521 10.9763 23.0711 11.7574L22.6921 12.1363L23.2098 11.9976C24.2767 11.7117 25.3734 12.3449 25.6593 13.4118C25.9451 14.4787 25.312 15.5754 24.245 15.8613L23.7274 16L24.245 16.1387C25.312 16.4246 25.9451 17.5213 25.6593 18.5882C25.3734 19.6551 24.2767 20.2883 23.2098 20.0024L22.6921 19.8637L23.0711 20.2426C23.8521 21.0237 23.8521 22.29 23.0711 23.0711C22.29 23.8521 21.0237 23.8521 20.2426 23.0711L19.8637 22.6921L20.0024 23.2098C20.2883 24.2767 19.6551 25.3734 18.5882 25.6593C17.5213 25.9451 16.4246 25.312 16.1387 24.245L16 23.7274L15.8613 24.245C15.5754 25.312 14.4787 25.9451 13.4118 25.6593C13.4076 25.6581 13.4035 25.657 13.3993 25.6559C12.3399 25.3648 11.7128 24.2725 11.9976 23.2098L12.1363 22.6921L11.7574 23.0711C10.9763 23.8521 9.70998 23.8521 8.92893 23.0711C8.14788 22.29 8.14788 21.0237 8.92893 20.2426L9.30787 19.8637L8.79023 20.0024C7.7233 20.2883 6.62663 19.6551 6.34074 18.5882C6.05486 17.5213 6.68802 16.4246 7.75496 16.1387L8.2726 16L7.75495 15.8613C7.68827 15.8434 7.62328 15.8224 7.56011 15.7984C6.61247 15.4384 6.07272 14.4121 6.34074 13.4118C6.62662 12.3449 7.7233 11.7117 8.79023 11.9976L9.30788 12.1363L8.92893 11.7574C8.14788 10.9763 8.14788 9.70998 8.92893 8.92893C9.70998 8.14788 10.9763 8.14788 11.7574 8.92893L12.1363 9.30787L11.9976 8.79023C11.7117 7.7233 12.3449 6.62662 13.4118 6.34074C14.4787 6.05486 15.5754 6.68802 15.8613 7.75495L16 8.27258L16.1387 7.75496C16.1566 7.68827 16.1776 7.62329 16.2016 7.56011Z" fill="#9F1F1F"/>
<path d="M14.0103 7.79551C14.1127 6.787 14.9645 6 16 6C16.069 6 16.1373 6.0035 16.2045 6.01033C17.213 6.11275 18 6.96447 18 8L18 8.53591L18.268 8.0718C18.8202 7.11521 20.0434 6.78746 21 7.33975C21.9566 7.89203 22.2843 9.11521 21.7321 10.0718L21.4641 10.5359L21.9282 10.268C22.8848 9.71567 24.108 10.0434 24.6603 11C25.2125 11.9566 24.8848 13.1798 23.9282 13.7321L23.4641 14H24C25.1046 14 26 14.8954 26 16C26 17.1046 25.1046 18 24 18H23.4641L23.9282 18.2679C24.8848 18.8202 25.2125 20.0434 24.6603 21C24.108 21.9566 22.8848 22.2843 21.9282 21.732L21.4641 21.4641L21.7321 21.9282C22.2843 22.8848 21.9566 24.108 21 24.6602C20.0434 25.2125 18.8202 24.8848 18.268 23.9282L18 23.4641V24C18 25.1046 17.1046 26 16 26C15.9957 26 15.9914 26 15.9871 26C14.8884 25.993 14 25.1003 14 24L14 23.4641L13.7321 23.9282C13.1798 24.8848 11.9566 25.2125 11 24.6603C10.0434 24.108 9.71567 22.8848 10.268 21.9282L10.5359 21.4641L10.0718 21.7321C9.11522 22.2843 7.89204 21.9566 7.33975 21C6.78747 20.0434 7.11522 18.8202 8.0718 18.268L8.53591 18H8C7.93096 18 7.86275 17.9965 7.79551 17.9897C6.787 17.8873 6 17.0355 6 16C6 14.8954 6.89543 14 8 14H8.53591L8.0718 13.732C7.11521 13.1798 6.78746 11.9566 7.33975 11C7.89203 10.0434 9.11521 9.71566 10.0718 10.2679L10.5359 10.5359L10.268 10.0718C9.71567 9.11521 10.0434 7.89203 11 7.33974C11.9566 6.78746 13.1798 7.11521 13.7321 8.07179L14 8.53589V8C14 7.93096 14.0035 7.86275 14.0103 7.79551Z" fill="#FBD03B"/>
<circle cx="10.5" cy="11.5" r="0.5" fill="#FFC01D"/>
<circle cx="20.5" cy="19.5" r="0.5" fill="#FFC01D"/>
<circle cx="22.5" cy="20.5" r="0.5" fill="#FFC01D"/>
<circle cx="20.5" cy="22.5" r="0.5" fill="#FFC01D"/>
<circle cx="14.5" cy="12.5" r="2.5" fill="#FFC01D"/>
<circle cx="21.5" cy="12.5" r="1.5" fill="#FFC01D"/>
<circle cx="10" cy="16" r="2" fill="#FFC01D"/>
<circle cx="16" cy="21" r="2" fill="#FFC01D"/>
<circle cx="14.5" cy="17.5" r="4.5" fill="#F25656"/>
<path fill-rule="evenodd" clip-rule="evenodd" d="M11 17.5C11 15.7368 12.3039 14.2781 14 14.0354V20.9646C12.3039 20.7219 11 19.2632 11 17.5ZM18 17.5C18 15.7368 16.6961 14.2781 15 14.0354V20.9646C16.6961 20.7219 18 19.2632 18 17.5Z" fill="#9F1F1F"/>
<path fill-rule="evenodd" clip-rule="evenodd" d="M12.5 16C12.7761 16 13 15.7761 13 15.5C13 15.2239 12.7761 15 12.5 15C12.2239 15 12 15.2239 12 15.5C12 15.7761 12.2239 16 12.5 16ZM12.5 18C12.7761 18 13 17.7761 13 17.5C13 17.2239 12.7761 17 12.5 17C12.2239 17 12 17.2239 12 17.5C12 17.7761 12.2239 18 12.5 18ZM13 19.5C13 19.7761 12.7761 20 12.5 20C12.2239 20 12 19.7761 12 19.5C12 19.2239 12.2239 19 12.5 19C12.7761 19 13 19.2239 13 19.5ZM16.5 20C16.7761 20 17 19.7761 17 19.5C17 19.2239 16.7761 19 16.5 19C16.2239 19 16 19.2239 16 19.5C16 19.7761 16.2239 20 16.5 20ZM17 17.5C17 17.7761 16.7761 18 16.5 18C16.2239 18 16 17.7761 16 17.5C16 17.2239 16.2239 17 16.5 17C16.7761 17 17 17.2239 17 17.5ZM16.5 16C16.7761 16 17 15.7761 17 15.5C17 15.2239 16.7761 15 16.5 15C16.2239 15 16 15.2239 16 15.5C16 15.7761 16.2239 16 16.5 16Z" fill="#F29856"/>
<circle cx="21.5" cy="15.5" r="2.5" fill="#F25656"/>
<path fill-rule="evenodd" clip-rule="evenodd" d="M19.5556 15.5C19.5556 14.5204 20.2799 13.71 21.2222 13.5752V17.4248C20.2799 17.29 19.5556 16.4796 19.5556 15.5ZM23.4444 15.5C23.4444 14.5204 22.7201 13.71 21.7778 13.5753V17.4248C22.7201 17.29 23.4444 16.4796 23.4444 15.5Z" fill="#9F1F1F"/>
<path fill-rule="evenodd" clip-rule="evenodd" d="M22.6111 14.6667C22.7645 14.6667 22.8889 14.5423 22.8889 14.3889C22.8889 14.2355 22.7645 14.1111 22.6111 14.1111C22.4577 14.1111 22.3333 14.2355 22.3333 14.3889C22.3333 14.5423 22.4577 14.6667 22.6111 14.6667ZM20.3889 14.6667C20.5423 14.6667 20.6667 14.5423 20.6667 14.3889C20.6667 14.2355 20.5423 14.1111 20.3889 14.1111C20.2355 14.1111 20.1111 14.2355 20.1111 14.3889C20.1111 14.5423 20.2355 14.6667 20.3889 14.6667ZM20.3889 15.7778C20.5423 15.7778 20.6667 15.6534 20.6667 15.5C20.6667 15.3466 20.5423 15.2222 20.3889 15.2222C20.2355 15.2222 20.1111 15.3466 20.1111 15.5C20.1111 15.6534 20.2355 15.7778 20.3889 15.7778ZM20.6667 16.6111C20.6667 16.7645 20.5423 16.8889 20.3889 16.8889C20.2355 16.8889 20.1111 16.7645 20.1111 16.6111C20.1111 16.4577 20.2355 16.3333 20.3889 16.3333C20.5423 16.3333 20.6667 16.4577 20.6667 16.6111ZM22.6111 16.8889C22.7645 16.8889 22.8889 16.7645 22.8889 16.6111C22.8889 16.4577 22.7645 16.3333 22.6111 16.3333C22.4577 16.3333 22.3333 16.4577 22.3333 16.6111C22.3333 16.7645 22.4577 16.8889 22.6111 16.8889ZM22.8889 15.5C22.8889 15.6534 22.7645 15.7778 22.6111 15.7778C22.4577 15.7778 22.3333 15.6534 22.3333 15.5C22.3333 15.3466 22.4577 15.2222 22.6111 15.2222C22.7645 15.2222 22.8889 15.3466 22.8889 15.5Z" fill="#F29856"/>
<circle cx="17.5" cy="10.5" r="2.5" fill="#F25656"/>
<path fill-rule="evenodd" clip-rule="evenodd" d="M15.5556 10.5C15.5556 9.52043 16.2799 8.71003 17.2222 8.57525V12.4248C16.2799 12.29 15.5556 11.4796 15.5556 10.5ZM19.4444 10.5C19.4444 9.52043 18.7201 8.71004 17.7778 8.57526V12.4248C18.7201 12.29 19.4444 11.4796 19.4444 10.5Z" fill="#9F1F1F"/>
<path fill-rule="evenodd" clip-rule="evenodd" d="M18.6111 9.66667C18.7645 9.66667 18.8889 9.5423 18.8889 9.38889C18.8889 9.23548 18.7645 9.11111 18.6111 9.11111C18.4577 9.11111 18.3333 9.23548 18.3333 9.38889C18.3333 9.5423 18.4577 9.66667 18.6111 9.66667ZM16.3889 9.66667C16.5423 9.66667 16.6667 9.54231 16.6667 9.3889C16.6667 9.23548 16.5423 9.11112 16.3889 9.11112C16.2355 9.11112 16.1111 9.23548 16.1111 9.3889C16.1111 9.54231 16.2355 9.66667 16.3889 9.66667ZM16.3889 10.7778C16.5423 10.7778 16.6667 10.6534 16.6667 10.5C16.6667 10.3466 16.5423 10.2222 16.3889 10.2222C16.2355 10.2222 16.1111 10.3466 16.1111 10.5C16.1111 10.6534 16.2355 10.7778 16.3889 10.7778ZM16.6667 11.6111C16.6667 11.7645 16.5423 11.8889 16.3889 11.8889C16.2355 11.8889 16.1111 11.7645 16.1111 11.6111C16.1111 11.4577 16.2355 11.3333 16.3889 11.3333C16.5423 11.3333 16.6667 11.4577 16.6667 11.6111ZM18.6111 11.8889C18.7645 11.8889 18.8889 11.7645 18.8889 11.6111C18.8889 11.4577 18.7645 11.3333 18.6111 11.3333C18.4577 11.3333 18.3333 11.4577 18.3333 11.6111C18.3333 11.7645 18.4577 11.8889 18.6111 11.8889ZM18.8889 10.5C18.8889 10.6534 18.7645 10.7778 18.6111 10.7778C18.4577 10.7778 18.3333 10.6534 18.3333 10.5C18.3333 10.3466 18.4577 10.2222 18.6111 10.2222C18.7645 10.2222 18.8889 10.3466 18.8889 10.5Z" fill="#F29856"/>
</svg>
