<svg width="32" height="32" viewBox="0 0 32 32" fill="none" xmlns="http://www.w3.org/2000/svg">
<circle cx="16" cy="17" r="14" fill="#E0D7D1"/>
<circle cx="16" cy="16" r="14" fill="#FBFBFB"/>
<path d="M24.7525 12.6168C26.723 13.6156 27.5108 16.0226 26.512 17.9931C25.5133 19.9636 23.1062 20.7513 21.1357 19.7525L14 16.1357L17.6168 9L24.7525 12.6168Z" fill="#0BCD77"/>
<path d="M15.3563 13.4598L16.2605 11.6759L22.9441 16.1847L15.3563 13.4598Z" fill="#05E682"/>
<path d="M15.3563 13.4598L16.2605 11.6759L22.9441 16.1847L15.3563 13.4598Z" fill="#05E682"/>
<path d="M17.3254 13.9988L18.0792 13.7188L21.148 17.5165L17.3254 13.9988Z" fill="#05E682"/>
<path d="M17.3254 13.9988L18.0792 13.7188L21.148 17.5165L17.3254 13.9988Z" fill="#05E682"/>
<path d="M16.0754 12.0411L16.2953 12.8146L21.1724 13.0444L16.0754 12.0411Z" fill="#05E682"/>
<path d="M16.0754 12.0411L16.2953 12.8146L21.1724 13.0444L16.0754 12.0411Z" fill="#05E682"/>
<path d="M22.605 6.24132C24.7051 5.55576 26.9633 6.70244 27.6489 8.80252C28.3344 10.9026 27.1877 13.1608 25.0877 13.8463L17.4826 16.329L15 8.72396L22.605 6.24132Z" fill="#0BCD77"/>
<path d="M16.5516 13.4771L15.931 11.5758L23.8463 10.0438L16.5516 13.4771Z" fill="#05E682"/>
<path d="M16.5516 13.4771L15.931 11.5758L23.8463 10.0438L16.5516 13.4771Z" fill="#05E682"/>
<path d="M18.3258 12.4672L18.6615 11.7364L23.5164 12.2554L18.3258 12.4672Z" fill="#05E682"/>
<path d="M18.3258 12.4672L18.6615 11.7364L23.5164 12.2554L18.3258 12.4672Z" fill="#05E682"/>
<path d="M16.0581 11.9651L16.7602 12.3571L20.3738 9.07357L16.0581 11.9651Z" fill="#05E682"/>
<path d="M16.0581 11.9651L16.7602 12.3571L20.3738 9.07357L16.0581 11.9651Z" fill="#05E682"/>
<path d="M9.4641 11.9282C7.55093 10.8236 6.89543 8.37727 8 6.4641C9.10457 4.55093 11.5509 3.89543 13.4641 5L20.3923 9L16.3923 15.9282L9.4641 11.9282Z" fill="#0BCD77"/>
<path d="M18.8923 11.5981L17.8923 13.3301L11.4641 8.4641L18.8923 11.5981Z" fill="#05E682"/>
<path d="M18.8923 11.5981L17.8923 13.3301L11.4641 8.4641L18.8923 11.5981Z" fill="#05E682"/>
<path d="M16.9555 10.9527L16.1875 11.1912L13.3301 7.23205L16.9555 10.9527Z" fill="#05E682"/>
<path d="M16.9555 10.9527L16.1875 11.1912L13.3301 7.23205L16.9555 10.9527Z" fill="#05E682"/>
<path d="M18.097 12.9755L17.9196 12.1912L13.0622 11.6962L18.097 12.9755Z" fill="#05E682"/>
<path d="M18.097 12.9755L17.9196 12.1912L13.0622 11.6962L18.097 12.9755Z" fill="#05E682"/>
<path d="M14.4004 6.93824C14.7872 4.76322 16.8639 3.31351 19.0389 3.70023C21.2139 4.08695 22.6636 6.16365 22.2769 8.33868L20.8765 16.2151L13 14.8147L14.4004 6.93824Z" fill="#0BCD77"/>
<path d="M17.9228 15.69L15.9537 15.3399L18.3387 7.63846L17.9228 15.69Z" fill="#05E682"/>
<path d="M17.9228 15.69L15.9537 15.3399L18.3387 7.63846L17.9228 15.69Z" fill="#05E682"/>
<path d="M17.8698 13.6492L17.3839 13.0084L20.1327 8.97313L17.8698 13.6492Z" fill="#05E682"/>
<path d="M17.8698 13.6492L17.3839 13.0084L20.1327 8.97313L17.8698 13.6492Z" fill="#05E682"/>
<path d="M16.3568 15.4116L17.0338 14.9775L15.8444 10.242L16.3568 15.4116Z" fill="#05E682"/>
<path d="M16.3568 15.4116L17.0338 14.9775L15.8444 10.242L16.3568 15.4116Z" fill="#05E682"/>
<path d="M17 22C14.7909 22 13 20.2091 13 18L17 18L17 22Z" fill="#FFC01D"/>
<path d="M24 26C20.6863 26 18 23.3137 18 20L24 20L24 26Z" fill="#FFC01D"/>
<path d="M18 19C18 16.2386 20.2386 14 23 14V19H18Z" fill="#FFC01D"/>
<path d="M12 23C12 21.8954 12.8954 21 14 21V23H12Z" fill="#FFC01D"/>
<path d="M18 27C15.7909 27 14 25.2091 14 23L18 23L18 27Z" fill="#FFC01D"/>
<path d="M21 14C19.8954 14 19 13.1046 19 12L21 12L21 14Z" fill="#FFC01D"/>
<path d="M26 17C24.8954 17 24 16.1046 24 15L26 15L26 17Z" fill="#05E682"/>
<path d="M19 20C15.134 20 12 16.866 12 13L19 13L19 20Z" fill="#FFDB5D"/>
<path d="M27 18C27 21.866 23.866 25 20 25L20 18L27 18Z" fill="#FFDB5D"/>
<path d="M20 17C20 14.2386 22.2386 12 25 12V17H20Z" fill="#FFDB5D"/>
<path d="M15 25C15 22.7909 16.7909 21 19 21V25H15Z" fill="#FFDB5D"/>
<path d="M16 20C16 21.6569 14.6569 23 13 23L13 20L16 20Z" fill="#FFDB5D"/>
<path d="M13 24C14.1046 24 15 24.8954 15 26L13 26L13 24Z" fill="#FFDB5D"/>
<path d="M18 5C16.8954 5 16 5.89543 16 7L18 7L18 5Z" fill="#05E682"/>
<path d="M9 8C9 9.10457 9.89543 10 11 10V8H9Z" fill="#05E682"/>
<path fill-rule="evenodd" clip-rule="evenodd" d="M4 12C3.44772 12 3 12.4477 3 13V20C3 20.5523 3.44772 21 4 21H6V27C6 27.5523 6.44772 28 7 28H8C8.55228 28 9 27.5523 9 27V21H11C11.5523 21 12 20.5523 12 20V13C12 12.4477 11.5523 12 11 12H4ZM7.5 26C7.77614 26 8 26.2239 8 26.5C8 26.7761 7.77614 27 7.5 27C7.22386 27 7 26.7761 7 26.5C7 26.2239 7.22386 26 7.5 26Z" fill="#3D3B38"/>
<rect x="4" y="13" width="7" height="7" rx="1" fill="#54524E"/>
<rect x="5" y="14" width="5" height="5" rx="1" fill="#FBD03B"/>
<circle cx="6.5" cy="15.5" r="0.5" fill="#EDBA07"/>
<circle cx="8.5" cy="17.5" r="0.5" fill="#EDBA07"/>
</svg>
