<svg width="32" height="32" viewBox="0 0 32 32" fill="none" xmlns="http://www.w3.org/2000/svg">
<path fill-rule="evenodd" clip-rule="evenodd" d="M28.947 16.9048C28.9821 16.7087 29 16.5102 29 16.3095C29 12.6934 23.1797 9.7619 16 9.7619C8.8203 9.7619 3 12.6934 3 16.3095C3 16.5102 3.01792 16.7087 3.053 16.9048H3C3 24.1371 7.85025 30 13.8333 30H18.1667C24.1498 30 29 24.1371 29 16.9048H28.947Z" fill="#56C4F5"/>
<path d="M4 16.4C4 13.4558 6.03761 10.5702 7.87064 8.42483C9.63657 6.35795 12.6187 5 16 5C19.3813 5 22.3634 6.35795 24.1294 8.42484C25.9624 10.5703 28 13.4558 28 16.4C28 20.0451 22.6274 23 16 23C9.37258 23 4 20.0451 4 16.4Z" fill="#FBFBFB"/>
</svg>
