<svg width="32" height="32" viewBox="0 0 32 32" fill="none" xmlns="http://www.w3.org/2000/svg">
<circle cx="16" cy="17" r="14" fill="#E0D7D1"/>
<circle cx="16" cy="16" r="14" fill="#FBFBFB"/>
<path d="M14.0103 7.79551C14.1127 6.787 14.9645 6 16 6C16.069 6 16.1373 6.0035 16.2045 6.01033C17.213 6.11275 18 6.96447 18 8L18 8.53591L18.268 8.0718C18.8202 7.11521 20.0434 6.78746 21 7.33975C21.9566 7.89203 22.2843 9.11521 21.7321 10.0718L21.4641 10.5359L21.9282 10.268C22.8848 9.71567 24.108 10.0434 24.6603 11C25.2125 11.9566 24.8848 13.1798 23.9282 13.7321L23.4641 14H24C25.1046 14 26 14.8954 26 16C26 17.1046 25.1046 18 24 18H23.4641L23.9282 18.2679C24.8848 18.8202 25.2125 20.0434 24.6603 21C24.108 21.9566 22.8848 22.2843 21.9282 21.732L21.4641 21.4641L21.7321 21.9282C22.2843 22.8848 21.9566 24.108 21 24.6602C20.0434 25.2125 18.8202 24.8848 18.268 23.9282L18 23.4641V24C18 25.1046 17.1046 26 16 26C15.9957 26 15.9914 26 15.9871 26C14.8884 25.993 14 25.1003 14 24L14 23.4641L13.7321 23.9282C13.1798 24.8848 11.9566 25.2125 11 24.6603C10.0434 24.108 9.71567 22.8848 10.268 21.9282L10.5359 21.4641L10.0718 21.7321C9.11522 22.2843 7.89204 21.9566 7.33975 21C6.78747 20.0434 7.11522 18.8202 8.0718 18.268L8.53591 18H8C7.93096 18 7.86275 17.9965 7.79551 17.9897C6.787 17.8873 6 17.0355 6 16C6 14.8954 6.89543 14 8 14H8.53591L8.0718 13.732C7.11521 13.1798 6.78746 11.9566 7.33975 11C7.89203 10.0434 9.11521 9.71566 10.0718 10.2679L10.5359 10.5359L10.268 10.0718C9.71567 9.11521 10.0434 7.89203 11 7.33974C11.9566 6.78746 13.1798 7.11521 13.7321 8.07179L14 8.53589V8C14 7.93096 14.0035 7.86275 14.0103 7.79551Z" fill="#0BCD77"/>
<path d="M15.554 24.2196C15.1865 26.3979 13.1226 27.8658 10.9442 27.4983C8.7659 27.1307 7.29798 25.0668 7.66554 22.8885L8.99662 15L16.8851 16.3311L15.554 24.2196Z" fill="#0BCD77"/>
<path d="M11.9548 15.4992L13.9269 15.8319L11.6098 23.554L11.9548 15.4992Z" fill="#05E682"/>
<path d="M11.9548 15.4992L13.9269 15.8319L11.6098 23.554L11.9548 15.4992Z" fill="#05E682"/>
<path d="M12.0258 17.5394L12.5173 18.1759L9.80405 22.2352L12.0258 17.5394Z" fill="#05E682"/>
<path d="M12.0258 17.5394L12.5173 18.1759L9.80405 22.2352L12.0258 17.5394Z" fill="#05E682"/>
<path d="M13.5232 15.7638L12.85 16.2038L14.0811 20.9286L13.5232 15.7638Z" fill="#05E682"/>
<path d="M13.5232 15.7638L12.85 16.2038L14.0811 20.9286L13.5232 15.7638Z" fill="#05E682"/>
<path d="M25.7525 17.6168C27.723 18.6156 28.5108 21.0226 27.512 22.9931C26.5133 24.9636 24.1062 25.7513 22.1357 24.7525L15 21.1357L18.6168 14L25.7525 17.6168Z" fill="#0BCD77"/>
<path d="M16.3563 18.4598L17.2605 16.6759L23.9441 21.1847L16.3563 18.4598Z" fill="#05E682"/>
<path d="M16.3563 18.4598L17.2605 16.6759L23.9441 21.1847L16.3563 18.4598Z" fill="#05E682"/>
<path d="M18.3254 18.9988L19.0792 18.7188L22.148 22.5165L18.3254 18.9988Z" fill="#05E682"/>
<path d="M18.3254 18.9988L19.0792 18.7188L22.148 22.5165L18.3254 18.9988Z" fill="#05E682"/>
<path d="M17.0754 17.0411L17.2953 17.8146L22.1724 18.0444L17.0754 17.0411Z" fill="#05E682"/>
<path d="M17.0754 17.0411L17.2953 17.8146L22.1724 18.0444L17.0754 17.0411Z" fill="#05E682"/>
<path d="M22.079 22.6092C22.761 24.7104 21.6105 26.9667 19.5093 27.6487C17.408 28.3307 15.1518 27.1802 14.4698 25.079L12 17.4698L19.6092 15L22.079 22.6092Z" fill="#0BCD77"/>
<path d="M14.8535 16.5436L16.7558 15.9262L18.2744 23.8441L14.8535 16.5436Z" fill="#05E682"/>
<path d="M14.8535 16.5436L16.7558 15.9262L18.2744 23.8441L14.8535 16.5436Z" fill="#05E682"/>
<path d="M15.8604 18.3195L16.5906 18.6564L16.0634 23.5104L15.8604 18.3195Z" fill="#05E682"/>
<path d="M15.8604 18.3195L16.5906 18.6564L16.0634 23.5104L15.8604 18.3195Z" fill="#05E682"/>
<path d="M16.3663 16.0526L15.9731 16.7541L19.2505 20.3732L16.3663 16.0526Z" fill="#05E682"/>
<path d="M16.3663 16.0526L15.9731 16.7541L19.2505 20.3732L16.3663 16.0526Z" fill="#05E682"/>
<path d="M6.4641 13.9282C4.55093 12.8236 3.89543 10.3773 5 8.4641C6.10457 6.55093 8.55093 5.89543 10.4641 7L17.3923 11L13.3923 17.9282L6.4641 13.9282Z" fill="#0BCD77"/>
<path d="M15.8923 13.5981L14.8923 15.3301L8.4641 10.4641L15.8923 13.5981Z" fill="#05E682"/>
<path d="M15.8923 13.5981L14.8923 15.3301L8.4641 10.4641L15.8923 13.5981Z" fill="#05E682"/>
<path d="M13.9555 12.9527L13.1875 13.1912L10.3301 9.23205L13.9555 12.9527Z" fill="#05E682"/>
<path d="M13.9555 12.9527L13.1875 13.1912L10.3301 9.23205L13.9555 12.9527Z" fill="#05E682"/>
<path d="M15.097 14.9755L14.9196 14.1912L10.0622 13.6962L15.097 14.9755Z" fill="#05E682"/>
<path d="M15.097 14.9755L14.9196 14.1912L10.0622 13.6962L15.097 14.9755Z" fill="#05E682"/>
<path d="M14.4004 6.93824C14.7872 4.76322 16.8639 3.31351 19.0389 3.70023C21.2139 4.08695 22.6636 6.16365 22.2769 8.33868L20.8765 16.2151L13 14.8147L14.4004 6.93824Z" fill="#0BCD77"/>
<path d="M17.9228 15.69L15.9537 15.3399L18.3387 7.63846L17.9228 15.69Z" fill="#05E682"/>
<path d="M17.9228 15.69L15.9537 15.3399L18.3387 7.63846L17.9228 15.69Z" fill="#05E682"/>
<path d="M17.8698 13.6492L17.3839 13.0084L20.1327 8.97313L17.8698 13.6492Z" fill="#05E682"/>
<path d="M17.8698 13.6492L17.3839 13.0084L20.1327 8.97313L17.8698 13.6492Z" fill="#05E682"/>
<path d="M16.3568 15.4116L17.0338 14.9775L15.8444 10.242L16.3568 15.4116Z" fill="#05E682"/>
<path d="M16.3568 15.4116L17.0338 14.9775L15.8444 10.242L16.3568 15.4116Z" fill="#05E682"/>
<circle cx="11.5" cy="9.5" r="4.5" fill="#F25656"/>
<path fill-rule="evenodd" clip-rule="evenodd" d="M8 9.5C8 7.73677 9.30385 6.27806 11 6.03545V12.9646C9.30385 12.7219 8 11.2632 8 9.5ZM15 9.5C15 7.73677 13.6961 6.27806 12 6.03545V12.9646C13.6961 12.7219 15 11.2632 15 9.5Z" fill="#9F1F1F"/>
<path fill-rule="evenodd" clip-rule="evenodd" d="M9.5 8C9.77614 8 10 7.77614 10 7.5C10 7.22386 9.77614 7 9.5 7C9.22386 7 9 7.22386 9 7.5C9 7.77614 9.22386 8 9.5 8ZM9.5 10C9.77614 10 10 9.77614 10 9.5C10 9.22386 9.77614 9 9.5 9C9.22386 9 9 9.22386 9 9.5C9 9.77614 9.22386 10 9.5 10ZM10 11.5C10 11.7761 9.77614 12 9.5 12C9.22386 12 9 11.7761 9 11.5C9 11.2239 9.22386 11 9.5 11C9.77614 11 10 11.2239 10 11.5ZM13.5 12C13.7761 12 14 11.7761 14 11.5C14 11.2239 13.7761 11 13.5 11C13.2239 11 13 11.2239 13 11.5C13 11.7761 13.2239 12 13.5 12ZM14 9.5C14 9.77614 13.7761 10 13.5 10C13.2239 10 13 9.77614 13 9.5C13 9.22386 13.2239 9 13.5 9C13.7761 9 14 9.22386 14 9.5ZM13.5 8C13.7761 8 14 7.77614 14 7.5C14 7.22386 13.7761 7 13.5 7C13.2239 7 13 7.22386 13 7.5C13 7.77614 13.2239 8 13.5 8Z" fill="#F29856"/>
<circle cx="17.5" cy="16.5" r="4.5" fill="#F25656"/>
<path fill-rule="evenodd" clip-rule="evenodd" d="M14 16.5C14 14.7368 15.3039 13.2781 17 13.0354V19.9646C15.3039 19.7219 14 18.2632 14 16.5ZM21 16.5C21 14.7368 19.6961 13.2781 18 13.0354V19.9646C19.6961 19.7219 21 18.2632 21 16.5Z" fill="#9F1F1F"/>
<path fill-rule="evenodd" clip-rule="evenodd" d="M15.5 15C15.7761 15 16 14.7761 16 14.5C16 14.2239 15.7761 14 15.5 14C15.2239 14 15 14.2239 15 14.5C15 14.7761 15.2239 15 15.5 15ZM15.5 17C15.7761 17 16 16.7761 16 16.5C16 16.2239 15.7761 16 15.5 16C15.2239 16 15 16.2239 15 16.5C15 16.7761 15.2239 17 15.5 17ZM16 18.5C16 18.7761 15.7761 19 15.5 19C15.2239 19 15 18.7761 15 18.5C15 18.2239 15.2239 18 15.5 18C15.7761 18 16 18.2239 16 18.5ZM19.5 19C19.7761 19 20 18.7761 20 18.5C20 18.2239 19.7761 18 19.5 18C19.2239 18 19 18.2239 19 18.5C19 18.7761 19.2239 19 19.5 19ZM20 16.5C20 16.7761 19.7761 17 19.5 17C19.2239 17 19 16.7761 19 16.5C19 16.2239 19.2239 16 19.5 16C19.7761 16 20 16.2239 20 16.5ZM19.5 15C19.7761 15 20 14.7761 20 14.5C20 14.2239 19.7761 14 19.5 14C19.2239 14 19 14.2239 19 14.5C19 14.7761 19.2239 15 19.5 15Z" fill="#F29856"/>
<path d="M19 25C20.1046 25 21 24.1046 21 23L19 23L19 25Z" fill="#05E682"/>
<path d="M13 26C11.8954 26 11 25.1046 11 24L13 24L13 26Z" fill="#05E682"/>
<path d="M13 23C12.4477 23 12 22.5523 12 22L13 22L13 23Z" fill="#FBD03B"/>
<path d="M11 16C10.4477 16 10 15.5523 10 15L11 15L11 16Z" fill="#FBD03B"/>
<path d="M16 9C16.5523 9 17 8.55228 17 8L16 8L16 9Z" fill="#FBD03B"/>
<path d="M23 11C23.5523 11 24 11.4477 24 12L23 12L23 11Z" fill="#FBD03B"/>
<path d="M18 6C18.5523 6 19 6.44772 19 7L18 7L18 6Z" fill="#FBD03B"/>
<path d="M21 21C20.4477 21 20 21.4477 20 22L21 22L21 21Z" fill="#FBD03B"/>
<path d="M25 23C23.8954 23 23 22.1046 23 21L25 21L25 23Z" fill="#05E682"/>
<path d="M21 13C19.8954 13 19 12.1046 19 11L21 11L21 13Z" fill="#05E682"/>
<path d="M9 8C7.89543 8 7 8.89543 7 10L9 10L9 8Z" fill="#05E682"/>
<path fill-rule="evenodd" clip-rule="evenodd" d="M10 19C12.7614 19 15 16.7614 15 14C15 11.2386 12.7614 9 10 9C7.23858 9 5 11.2386 5 14C5 16.7614 7.23858 19 10 19ZM10 18C12.2091 18 14 16.2091 14 14C14 11.7909 12.2091 10 10 10C7.79086 10 6 11.7909 6 14C6 16.2091 7.79086 18 10 18Z" fill="#FFDB5D"/>
<circle cx="8.5" cy="19.5" r="4.5" fill="#F25656"/>
<path fill-rule="evenodd" clip-rule="evenodd" d="M5 19.5C5 17.7368 6.30385 16.2781 8 16.0354V22.9646C6.30385 22.7219 5 21.2632 5 19.5ZM12 19.5C12 17.7368 10.6961 16.2781 9 16.0354V22.9646C10.6961 22.7219 12 21.2632 12 19.5Z" fill="#9F1F1F"/>
<path fill-rule="evenodd" clip-rule="evenodd" d="M6.5 18C6.77614 18 7 17.7761 7 17.5C7 17.2239 6.77614 17 6.5 17C6.22386 17 6 17.2239 6 17.5C6 17.7761 6.22386 18 6.5 18ZM6.5 20C6.77614 20 7 19.7761 7 19.5C7 19.2239 6.77614 19 6.5 19C6.22386 19 6 19.2239 6 19.5C6 19.7761 6.22386 20 6.5 20ZM7 21.5C7 21.7761 6.77614 22 6.5 22C6.22386 22 6 21.7761 6 21.5C6 21.2239 6.22386 21 6.5 21C6.77614 21 7 21.2239 7 21.5ZM10.5 22C10.7761 22 11 21.7761 11 21.5C11 21.2239 10.7761 21 10.5 21C10.2239 21 10 21.2239 10 21.5C10 21.7761 10.2239 22 10.5 22ZM11 19.5C11 19.7761 10.7761 20 10.5 20C10.2239 20 10 19.7761 10 19.5C10 19.2239 10.2239 19 10.5 19C10.7761 19 11 19.2239 11 19.5ZM10.5 18C10.7761 18 11 17.7761 11 17.5C11 17.2239 10.7761 17 10.5 17C10.2239 17 10 17.2239 10 17.5C10 17.7761 10.2239 18 10.5 18Z" fill="#F29856"/>
<path fill-rule="evenodd" clip-rule="evenodd" d="M18 27C20.7614 27 23 24.7614 23 22C23 19.2386 20.7614 17 18 17C15.2386 17 13 19.2386 13 22C13 24.7614 15.2386 27 18 27ZM18 26C20.2091 26 22 24.2091 22 22C22 19.7909 20.2091 18 18 18C15.7909 18 14 19.7909 14 22C14 24.2091 15.7909 26 18 26Z" fill="#FFDB5D"/>
<path fill-rule="evenodd" clip-rule="evenodd" d="M22 17C24.7614 17 27 14.7614 27 12C27 9.23858 24.7614 7 22 7C19.2386 7 17 9.23858 17 12C17 14.7614 19.2386 17 22 17ZM22 16C24.2091 16 26 14.2091 26 12C26 9.79086 24.2091 8 22 8C19.7909 8 18 9.79086 18 12C18 14.2091 19.7909 16 22 16Z" fill="#FFDB5D"/>
<circle cx="24.5" cy="16.5" r="4.5" fill="#F25656"/>
<path fill-rule="evenodd" clip-rule="evenodd" d="M21 16.5C21 14.7368 22.3039 13.2781 24 13.0354V19.9646C22.3039 19.7219 21 18.2632 21 16.5ZM28 16.5C28 14.7368 26.6961 13.2781 25 13.0354V19.9646C26.6961 19.7219 28 18.2632 28 16.5Z" fill="#9F1F1F"/>
<path fill-rule="evenodd" clip-rule="evenodd" d="M22.5 15C22.7761 15 23 14.7761 23 14.5C23 14.2239 22.7761 14 22.5 14C22.2239 14 22 14.2239 22 14.5C22 14.7761 22.2239 15 22.5 15ZM22.5 17C22.7761 17 23 16.7761 23 16.5C23 16.2239 22.7761 16 22.5 16C22.2239 16 22 16.2239 22 16.5C22 16.7761 22.2239 17 22.5 17ZM23 18.5C23 18.7761 22.7761 19 22.5 19C22.2239 19 22 18.7761 22 18.5C22 18.2239 22.2239 18 22.5 18C22.7761 18 23 18.2239 23 18.5ZM26.5 19C26.7761 19 27 18.7761 27 18.5C27 18.2239 26.7761 18 26.5 18C26.2239 18 26 18.2239 26 18.5C26 18.7761 26.2239 19 26.5 19ZM27 16.5C27 16.7761 26.7761 17 26.5 17C26.2239 17 26 16.7761 26 16.5C26 16.2239 26.2239 16 26.5 16C26.7761 16 27 16.2239 27 16.5ZM26.5 15C26.7761 15 27 14.7761 27 14.5C27 14.2239 26.7761 14 26.5 14C26.2239 14 26 14.2239 26 14.5C26 14.7761 26.2239 15 26.5 15Z" fill="#F29856"/>
<circle cx="16.5" cy="23.5" r="2.5" fill="#F25656"/>
<path fill-rule="evenodd" clip-rule="evenodd" d="M14.5556 23.5C14.5556 22.5204 15.2799 21.71 16.2222 21.5752V25.4248C15.2799 25.29 14.5556 24.4796 14.5556 23.5ZM18.4444 23.5C18.4444 22.5204 17.7201 21.71 16.7778 21.5753V25.4248C17.7201 25.29 18.4444 24.4796 18.4444 23.5Z" fill="#9F1F1F"/>
<path fill-rule="evenodd" clip-rule="evenodd" d="M17.6111 22.6667C17.7645 22.6667 17.8889 22.5423 17.8889 22.3889C17.8889 22.2355 17.7645 22.1111 17.6111 22.1111C17.4577 22.1111 17.3333 22.2355 17.3333 22.3889C17.3333 22.5423 17.4577 22.6667 17.6111 22.6667ZM15.3889 22.6667C15.5423 22.6667 15.6667 22.5423 15.6667 22.3889C15.6667 22.2355 15.5423 22.1111 15.3889 22.1111C15.2355 22.1111 15.1111 22.2355 15.1111 22.3889C15.1111 22.5423 15.2355 22.6667 15.3889 22.6667ZM15.3889 23.7778C15.5423 23.7778 15.6667 23.6534 15.6667 23.5C15.6667 23.3466 15.5423 23.2222 15.3889 23.2222C15.2355 23.2222 15.1111 23.3466 15.1111 23.5C15.1111 23.6534 15.2355 23.7778 15.3889 23.7778ZM15.6667 24.6111C15.6667 24.7645 15.5423 24.8889 15.3889 24.8889C15.2355 24.8889 15.1111 24.7645 15.1111 24.6111C15.1111 24.4577 15.2355 24.3333 15.3889 24.3333C15.5423 24.3333 15.6667 24.4577 15.6667 24.6111ZM17.6111 24.8889C17.7645 24.8889 17.8889 24.7645 17.8889 24.6111C17.8889 24.4577 17.7645 24.3333 17.6111 24.3333C17.4577 24.3333 17.3333 24.4577 17.3333 24.6111C17.3333 24.7645 17.4577 24.8889 17.6111 24.8889ZM17.8889 23.5C17.8889 23.6534 17.7645 23.7778 17.6111 23.7778C17.4577 23.7778 17.3333 23.6534 17.3333 23.5C17.3333 23.3466 17.4577 23.2222 17.6111 23.2222C17.7645 23.2222 17.8889 23.3466 17.8889 23.5Z" fill="#F29856"/>
</svg>
