<svg width="32" height="32" viewBox="0 0 32 32" fill="none" xmlns="http://www.w3.org/2000/svg">
<circle cx="16" cy="17" r="14" fill="#E0D7D1"/>
<circle cx="16" cy="16" r="14" fill="#56C4F5"/>
<ellipse cx="16" cy="15" rx="14" ry="13" fill="#FBFBFB"/>
<ellipse cx="16" cy="15" rx="12" ry="11" fill="#DECB88"/>
<path d="M13.682 20.0607L9.43934 15.818C8.26776 16.9896 8.26776 18.8891 9.43934 20.0607C10.6109 21.2322 12.5104 21.2322 13.682 20.0607Z" fill="#FBD03B"/>
<path d="M8 13L14 13C14 11.3431 12.6569 10 11 10C9.34315 10 8 11.3431 8 13Z" fill="#FBD03B"/>
<path d="M23 21V15C21.3431 15 20 16.3431 20 18C20 19.6569 21.3431 21 23 21Z" fill="#FBD03B"/>
<path d="M16 10.2426L20.2426 6C21.4142 7.17158 21.4142 9.07107 20.2426 10.2426C19.0711 11.4142 17.1716 11.4142 16 10.2426Z" fill="#FBD03B"/>
<path d="M13 17.2426L17.2426 13C18.4142 14.1716 18.4142 16.0711 17.2426 17.2426C16.0711 18.4142 14.1716 18.4142 13 17.2426Z" fill="#F86E00"/>
<path d="M17 21L21 21C21 22.1046 20.1046 23 19 23C17.8954 23 17 22.1046 17 21Z" fill="#F86E00"/>
<path d="M23.2929 10.8787L26.1213 13.7071C25.3403 14.4882 24.0739 14.4882 23.2929 13.7071C22.5118 12.9261 22.5118 11.6597 23.2929 10.8787Z" fill="#F86E00"/>
<path d="M13.4142 6L16.2426 8.82843C15.4616 9.60948 14.1953 9.60948 13.4142 8.82843C12.6332 8.04738 12.6332 6.78105 13.4142 6Z" fill="#F86E00"/>
<path d="M11 16C11 14.8954 11.8954 14 13 14V16H11Z" fill="#0BCD77"/>
<path d="M8 16C6.89543 16 6 15.1046 6 14L8 14L8 16Z" fill="#0BCD77"/>
<path d="M15 25C13.8954 25 13 24.1046 13 23L15 23L15 25Z" fill="#0BCD77"/>
<path d="M19 14C20.1046 14 21 13.1046 21 12L19 12L19 14Z" fill="#0BCD77"/>
<path d="M24 20C25.1046 20 26 19.1046 26 18L24 18L24 20Z" fill="#0BCD77"/>
<path d="M9 9C10.1046 9 11 8.10457 11 7L9 7L9 9Z" fill="#0BCD77"/>
</svg>
