<svg width="64" height="64" viewBox="0 0 64 64" fill="none" xmlns="http://www.w3.org/2000/svg">
<circle cx="33" cy="33" r="29" fill="#9B9285" fill-opacity="0.2"/>
<circle cx="32" cy="32" r="28" fill="#657DAC"/>
<g clip-path="url(#clip0_71_584)">
<circle cx="23" cy="50" r="14" fill="#E0D7D1"/>
<circle cx="23" cy="49" r="14" fill="#56C4F5"/>
<ellipse cx="23" cy="48" rx="14" ry="13" fill="#FBFBFB"/>
<ellipse cx="23" cy="48" rx="12" ry="11" fill="#DECB88"/>
<path d="M20.682 53.0607L16.4393 48.818C15.2678 49.9896 15.2678 51.8891 16.4393 53.0607C17.6109 54.2322 19.5104 54.2322 20.682 53.0607Z" fill="#FBD03B"/>
<path d="M15 46L21 46C21 44.3431 19.6569 43 18 43C16.3431 43 15 44.3431 15 46Z" fill="#FBD03B"/>
<path d="M30 54V48C28.3431 48 27 49.3431 27 51C27 52.6569 28.3431 54 30 54Z" fill="#FBD03B"/>
<path d="M23 43.2426L27.2426 39C28.4142 40.1716 28.4142 42.0711 27.2426 43.2426C26.0711 44.4142 24.1716 44.4142 23 43.2426Z" fill="#FBD03B"/>
<path d="M20 50.2426L24.2426 46C25.4142 47.1716 25.4142 49.0711 24.2426 50.2426C23.0711 51.4142 21.1716 51.4142 20 50.2426Z" fill="#F86E00"/>
<path d="M24 54L28 54C28 55.1046 27.1046 56 26 56C24.8954 56 24 55.1046 24 54Z" fill="#F86E00"/>
<path d="M30.2929 43.8787L33.1213 46.7071C32.3403 47.4882 31.0739 47.4882 30.2929 46.7071C29.5118 45.9261 29.5118 44.6597 30.2929 43.8787Z" fill="#F86E00"/>
<path d="M20.4142 39L23.2426 41.8284C22.4616 42.6095 21.1953 42.6095 20.4142 41.8284C19.6332 41.0474 19.6332 39.7811 20.4142 39Z" fill="#F86E00"/>
<path d="M18 49C18 47.8954 18.8954 47 20 47V49H18Z" fill="#0BCD77"/>
<path d="M15 49C13.8954 49 13 48.1046 13 47L15 47L15 49Z" fill="#0BCD77"/>
<path d="M22 58C20.8954 58 20 57.1046 20 56L22 56L22 58Z" fill="#0BCD77"/>
<path d="M26 47C27.1046 47 28 46.1046 28 45L26 45L26 47Z" fill="#0BCD77"/>
<path d="M31 53C32.1046 53 33 52.1046 33 51L31 51L31 53Z" fill="#0BCD77"/>
<path d="M16 42C17.1046 42 18 41.1046 18 40L16 40L16 42Z" fill="#0BCD77"/>
<circle cx="10" cy="23" r="14" fill="#E0D7D1"/>
<circle cx="10" cy="22" r="14" fill="#FBFBFB"/>
<path fill-rule="evenodd" clip-rule="evenodd" d="M11 14C11 15.6569 9.65685 17 8 17C6.34315 17 5 15.6569 5 14C5 12.3431 6.34315 11 8 11C9.65685 11 11 12.3431 11 14ZM17 20C18.6569 20 20 18.6569 20 17C20 15.3431 18.6569 14 17 14C15.3431 14 14 15.3431 14 17C14 18.6569 15.3431 20 17 20ZM10 19C12.1002 19 13.9483 20.079 15.0203 21.7129C15.5676 22.5472 17.0022 23 18 23V23C19.6569 23 21 24.3431 21 26C21 27.2473 20.2388 28.3168 19.1556 28.7693C19.0624 28.8083 19 28.899 19 29V29C19 31.7614 16.7614 34 14 34C12.0156 34 10.3012 32.8439 9.49348 31.1686C9.43524 31.0478 9.32034 30.9634 9.18744 30.9454C9.0062 30.9209 8.82754 30.8883 8.65181 30.8479C8.39824 30.7897 8 31.2398 8 31.5V31.5C8 32.3284 7.32843 33 6.5 33C5.67157 33 5 32.3284 5 31.5C5 31.3545 5.02072 31.2138 5.05938 31.0808C5.07094 31.041 5.04146 31 5 31V31C2.23858 31 0 28.7614 0 26C0 23.2386 2.23858 21 5 21V21C5.31784 21 5.62647 20.8802 5.8563 20.6607C6.93339 19.6318 8.39291 19 10 19ZM1 22C2.65685 22 4 20.6569 4 19C4 18.3306 3.78076 17.7124 3.41018 17.2133C3.07247 16.7585 3 16.0665 3 15.5V15.5C3 14.6716 2.32843 14 1.5 14C0.671573 14 0 14.6716 0 15.5V15.5C0 15.8411 -0.159214 16.2111 -0.457268 16.3771C-1.37748 16.8895 -2 17.872 -2 19C-2 20.6569 -0.656854 22 1 22Z" fill="#845842"/>
<circle cx="12" cy="16" r="6" fill="#FBD03B"/>
<path d="M12 18C12 21.3137 9.31371 24 6 24C2.68629 24 0 21.3137 0 18C0 14.6863 2.68629 12 6 12C9.31371 12 12 14.6863 12 18Z" fill="#FBD03B"/>
<path d="M11 18C11 20.7614 8.76142 23 6 23C3.23858 23 1 20.7614 1 18C1 15.2386 3.23858 13 6 13C8.76142 13 11 15.2386 11 18Z" fill="#EFC531"/>
<path d="M10 18C10 20.2091 8.20914 22 6 22C3.79086 22 2 20.2091 2 18C2 15.7909 3.79086 14 6 14C8.20914 14 10 15.7909 10 18Z" fill="#FBD03B"/>
<path d="M9 18C9 19.6569 7.65685 21 6 21C4.34315 21 3 19.6569 3 18C3 16.3431 4.34315 15 6 15C7.65685 15 9 16.3431 9 18Z" fill="#EFC531"/>
<path d="M8 18C8 19.1046 7.10457 20 6 20C4.89543 20 4 19.1046 4 18C4 16.8954 4.89543 16 6 16C7.10457 16 8 16.8954 8 18Z" fill="#FBD03B"/>
<path d="M23 22C23 25.3137 20.3137 28 17 28C13.6863 28 11 25.3137 11 22C11 18.6863 13.6863 16 17 16C20.3137 16 23 18.6863 23 22Z" fill="#FBD03B"/>
<path d="M22 22C22 24.7614 19.7614 27 17 27C14.2386 27 12 24.7614 12 22C12 19.2386 14.2386 17 17 17C19.7614 17 22 19.2386 22 22Z" fill="#EFC531"/>
<path d="M21 22C21 24.2091 19.2091 26 17 26C14.7909 26 13 24.2091 13 22C13 19.7909 14.7909 18 17 18C19.2091 18 21 19.7909 21 22Z" fill="#FBD03B"/>
<path d="M20 22C20 23.6569 18.6569 25 17 25C15.3431 25 14 23.6569 14 22C14 20.3431 15.3431 19 17 19C18.6569 19 20 20.3431 20 22Z" fill="#EFC531"/>
<path d="M19 22C19 23.1046 18.1046 24 17 24C15.8954 24 15 23.1046 15 22C15 20.8954 15.8954 20 17 20C18.1046 20 19 20.8954 19 22Z" fill="#FBD03B"/>
<path d="M9 24C9 27.3137 6.31371 30 3 30C-0.313709 30 -3 27.3137 -3 24C-3 20.6863 -0.313709 18 3 18C6.31371 18 9 20.6863 9 24Z" fill="#FBD03B"/>
<path d="M8 24C8 26.7614 5.76142 29 3 29C0.238576 29 -2 26.7614 -2 24C-2 21.2386 0.238576 19 3 19C5.76142 19 8 21.2386 8 24Z" fill="#EFC531"/>
<path d="M7 24C7 26.2091 5.20914 28 3 28C0.790861 28 -1 26.2091 -1 24C-1 21.7909 0.790861 20 3 20C5.20914 20 7 21.7909 7 24Z" fill="#FBD03B"/>
<path d="M6 24C6 25.6569 4.65685 27 3 27C1.34315 27 0 25.6569 0 24C0 22.3431 1.34315 21 3 21C4.65685 21 6 22.3431 6 24Z" fill="#EFC531"/>
<path d="M5 24C5 25.1046 4.10457 26 3 26C1.89543 26 1 25.1046 1 24C1 22.8954 1.89543 22 3 22C4.10457 22 5 22.8954 5 24Z" fill="#FBD03B"/>
<path d="M17 28C17 31.3137 14.3137 34 11 34C7.68629 34 5 31.3137 5 28C5 24.6863 7.68629 22 11 22C14.3137 22 17 24.6863 17 28Z" fill="#FBD03B"/>
<path d="M16 28C16 30.7614 13.7614 33 11 33C8.23858 33 6 30.7614 6 28C6 25.2386 8.23858 23 11 23C13.7614 23 16 25.2386 16 28Z" fill="#EFC531"/>
<path d="M15 28C15 30.2091 13.2091 32 11 32C8.79086 32 7 30.2091 7 28C7 25.7909 8.79086 24 11 24C13.2091 24 15 25.7909 15 28Z" fill="#FBD03B"/>
<path d="M14 28C14 29.6569 12.6569 31 11 31C9.34315 31 8 29.6569 8 28C8 26.3431 9.34315 25 11 25C12.6569 25 14 26.3431 14 28Z" fill="#EFC531"/>
<path d="M13 28C13 29.1046 12.1046 30 11 30C9.89543 30 9 29.1046 9 28C9 26.8954 9.89543 26 11 26C12.1046 26 13 26.8954 13 28Z" fill="#FBD03B"/>
<path d="M11.9074 10C11.2406 10 10.5992 10.1088 10 10.3095V11.5C10 12.3284 10.6716 13 11.5 13C12.3261 13 12.9963 12.3321 13 11.5068V13.5C13 14.3284 13.6716 15 14.5 15C15.3284 15 16 14.3284 16 13.5V12C16 12.949 16.6609 13.7436 17.5475 13.9486C16.7095 11.6451 14.5006 10 11.9074 10Z" fill="#B69A9A"/>
<path fill-rule="evenodd" clip-rule="evenodd" d="M0.0926208 16.944C0.591567 14.1339 3.04658 12 6 12C9.20173 12 11.8177 14.5078 11.9909 17.6663C11.9081 18.4165 11.2722 19 10.5 19C9.67156 19 8.99999 18.3284 8.99999 17.5V16C8.99999 17.1046 8.10456 18 6.99999 18C5.89542 18 4.99999 17.1046 4.99999 16V17.5C4.99999 17.7818 4.92229 18.0454 4.78714 18.2707C6.73215 18.8767 8.2524 20.4459 8.78984 22.4202C9.47382 22.149 10.2195 22 11 22C11 18.6863 13.6863 16 17 16C18.4235 16 19.7312 16.4957 20.7599 17.324V21.5C20.7599 22.3284 20.0884 23 19.2599 23C18.4315 23 17.76 22.3284 17.76 21.5V20C17.76 21.1046 16.8645 22 15.76 22C14.6554 22 13.76 21.1046 13.76 20V21.5C13.76 21.8806 13.6182 22.2281 13.3846 22.4926C13.7804 22.6641 14.154 22.8771 14.5 23.126V25C14.5 25.8284 13.8284 26.5 13 26.5C12.6142 26.5 12.2625 26.3544 11.9967 26.1151C11.9371 27.1661 11.0659 28 10 28C9.63571 28 9.29417 27.9026 9 27.7324V28.5C9 29.3284 8.32843 30 7.5 30C6.67157 30 6 29.3284 6 28.5V25C6 26.1046 5.10457 27 4 27C2.89543 27 2 26.1046 2 25V21.5C2 22.3284 1.32843 23 0.5 23C-0.328427 23 -1 22.3284 -1 21.5V19.5278C-0.147326 18.7646 0.924896 18.2417 2.11025 18.0655C2.03916 17.891 1.99999 17.7001 1.99999 17.5V15.5068C1.9963 16.3321 1.32615 17 0.500002 17C0.358802 17 0.222158 16.9805 0.0926208 16.944ZM6 24.5C6 24.5569 6.00316 24.613 6.00933 24.6682L6 24.6822V24.5Z" fill="#B69A9A"/>
<path d="M3 20C4.10457 20 5 20.8954 5 22H3V20Z" fill="#845842"/>
<path d="M8 15C9.10457 15 10 15.8954 10 17H8V15Z" fill="#845842"/>
<path d="M9 25C9.55228 25 10 25.4477 10 26H9V25Z" fill="#845842"/>
<path d="M12 24C12.5523 24 13 23.5523 13 23H12V24Z" fill="#845842"/>
<path d="M6 15C6.55228 15 7 14.5523 7 14H6V15Z" fill="#845842"/>
<path d="M3 16C3.55228 16 4 15.5523 4 15H3V16Z" fill="#845842"/>
<path d="M4 24C4.55228 24 5 23.5523 5 23H4V24Z" fill="#845842"/>
<path d="M14 14C14.5523 14 15 13.5523 15 13H14V14Z" fill="#845842"/>
<path d="M17 19C15.8954 19 15 19.8954 15 21H17V19Z" fill="#845842"/>
<path d="M2 19C0.895431 19 0 19.8954 0 21H2V19Z" fill="#845842"/>
<path d="M18 17C18.5523 17 19 17.4477 19 18H18V17Z" fill="#845842"/>
<circle cx="54" cy="47" r="14" fill="#E0D7D1"/>
<circle cx="54" cy="46" r="14" fill="#FBFBFB"/>
<path d="M52.0103 37.7955C52.1127 36.787 52.9645 36 54 36C54.069 36 54.1373 36.0035 54.2045 36.0103C55.213 36.1127 56 36.9645 56 38L56 38.5359L56.268 38.0718C56.8202 37.1152 58.0434 36.7875 59 37.3397C59.9566 37.892 60.2843 39.1152 59.7321 40.0718L59.4641 40.5359L59.9282 40.268C60.8848 39.7157 62.108 40.0434 62.6603 41C63.2125 41.9566 62.8848 43.1798 61.9282 43.7321L61.4641 44H62C63.1046 44 64 44.8954 64 46C64 47.1046 63.1046 48 62 48H61.4641L61.9282 48.2679C62.8848 48.8202 63.2125 50.0434 62.6603 51C62.108 51.9566 60.8848 52.2843 59.9282 51.732L59.4641 51.4641L59.7321 51.9282C60.2843 52.8848 59.9566 54.108 59 54.6602C58.0434 55.2125 56.8202 54.8848 56.268 53.9282L56 53.4641V54C56 55.1046 55.1046 56 54 56C53.9957 56 53.9914 56 53.9871 56C52.8884 55.993 52 55.1003 52 54L52 53.4641L51.7321 53.9282C51.1798 54.8848 49.9566 55.2125 49 54.6603C48.0434 54.108 47.7157 52.8848 48.268 51.9282L48.5359 51.4641L48.0718 51.7321C47.1152 52.2843 45.892 51.9566 45.3398 51C44.7875 50.0434 45.1152 48.8202 46.0718 48.268L46.5359 48H46C45.931 48 45.8627 47.9965 45.7955 47.9897C44.787 47.8873 44 47.0355 44 46C44 44.8954 44.8954 44 46 44H46.5359L46.0718 43.732C45.1152 43.1798 44.7875 41.9566 45.3397 41C45.892 40.0434 47.1152 39.7157 48.0718 40.2679L48.5359 40.5359L48.268 40.0718C47.7157 39.1152 48.0434 37.892 49 37.3397C49.9566 36.7875 51.1798 37.1152 51.7321 38.0718L52 38.5359V38C52 37.931 52.0035 37.8627 52.0103 37.7955Z" fill="#0BCD77"/>
<path d="M53.554 54.2196C53.1865 56.3979 51.1226 57.8658 48.9442 57.4983C46.7659 57.1307 45.298 55.0668 45.6655 52.8885L46.9966 45L54.8851 46.3311L53.554 54.2196Z" fill="#0BCD77"/>
<path d="M49.9548 45.4992L51.9269 45.8319L49.6098 53.554L49.9548 45.4992Z" fill="#05E682"/>
<path d="M49.9548 45.4992L51.9269 45.8319L49.6098 53.554L49.9548 45.4992Z" fill="#05E682"/>
<path d="M50.0258 47.5394L50.5173 48.1759L47.804 52.2352L50.0258 47.5394Z" fill="#05E682"/>
<path d="M50.0258 47.5394L50.5173 48.1759L47.804 52.2352L50.0258 47.5394Z" fill="#05E682"/>
<path d="M51.5232 45.7638L50.85 46.2038L52.0811 50.9286L51.5232 45.7638Z" fill="#05E682"/>
<path d="M51.5232 45.7638L50.85 46.2038L52.0811 50.9286L51.5232 45.7638Z" fill="#05E682"/>
<path d="M63.7525 47.6168C65.723 48.6156 66.5108 51.0226 65.512 52.9931C64.5133 54.9636 62.1062 55.7513 60.1357 54.7525L53 51.1357L56.6168 44L63.7525 47.6168Z" fill="#0BCD77"/>
<path d="M54.3563 48.4598L55.2605 46.6759L61.9441 51.1847L54.3563 48.4598Z" fill="#05E682"/>
<path d="M54.3563 48.4598L55.2605 46.6759L61.9441 51.1847L54.3563 48.4598Z" fill="#05E682"/>
<path d="M56.3254 48.9988L57.0792 48.7188L60.148 52.5165L56.3254 48.9988Z" fill="#05E682"/>
<path d="M56.3254 48.9988L57.0792 48.7188L60.148 52.5165L56.3254 48.9988Z" fill="#05E682"/>
<path d="M55.0754 47.0411L55.2953 47.8146L60.1724 48.0444L55.0754 47.0411Z" fill="#05E682"/>
<path d="M55.0754 47.0411L55.2953 47.8146L60.1724 48.0444L55.0754 47.0411Z" fill="#05E682"/>
<path d="M60.079 52.6092C60.761 54.7104 59.6105 56.9667 57.5093 57.6487C55.408 58.3307 53.1518 57.1802 52.4698 55.079L50 47.4698L57.6092 45L60.079 52.6092Z" fill="#0BCD77"/>
<path d="M52.8535 46.5436L54.7558 45.9262L56.2744 53.8441L52.8535 46.5436Z" fill="#05E682"/>
<path d="M52.8535 46.5436L54.7558 45.9262L56.2744 53.8441L52.8535 46.5436Z" fill="#05E682"/>
<path d="M53.8604 48.3195L54.5906 48.6564L54.0634 53.5104L53.8604 48.3195Z" fill="#05E682"/>
<path d="M53.8604 48.3195L54.5906 48.6564L54.0634 53.5104L53.8604 48.3195Z" fill="#05E682"/>
<path d="M54.3663 46.0526L53.9731 46.7541L57.2505 50.3732L54.3663 46.0526Z" fill="#05E682"/>
<path d="M54.3663 46.0526L53.9731 46.7541L57.2505 50.3732L54.3663 46.0526Z" fill="#05E682"/>
<path d="M44.4641 43.9282C42.5509 42.8236 41.8954 40.3773 43 38.4641C44.1046 36.5509 46.5509 35.8954 48.4641 37L55.3923 41L51.3923 47.9282L44.4641 43.9282Z" fill="#0BCD77"/>
<path d="M53.8923 43.5981L52.8923 45.3301L46.4641 40.4641L53.8923 43.5981Z" fill="#05E682"/>
<path d="M53.8923 43.5981L52.8923 45.3301L46.4641 40.4641L53.8923 43.5981Z" fill="#05E682"/>
<path d="M51.9555 42.9527L51.1875 43.1912L48.3301 39.232L51.9555 42.9527Z" fill="#05E682"/>
<path d="M51.9555 42.9527L51.1875 43.1912L48.3301 39.232L51.9555 42.9527Z" fill="#05E682"/>
<path d="M53.097 44.9755L52.9196 44.1912L48.0622 43.6962L53.097 44.9755Z" fill="#05E682"/>
<path d="M53.097 44.9755L52.9196 44.1912L48.0622 43.6962L53.097 44.9755Z" fill="#05E682"/>
<path d="M52.4004 36.9382C52.7872 34.7632 54.8639 33.3135 57.0389 33.7002C59.2139 34.0869 60.6636 36.1637 60.2769 38.3387L58.8765 46.2151L51 44.8147L52.4004 36.9382Z" fill="#0BCD77"/>
<path d="M55.9228 45.69L53.9537 45.3399L56.3387 37.6385L55.9228 45.69Z" fill="#05E682"/>
<path d="M55.9228 45.69L53.9537 45.3399L56.3387 37.6385L55.9228 45.69Z" fill="#05E682"/>
<path d="M55.8698 43.6492L55.3839 43.0084L58.1327 38.9731L55.8698 43.6492Z" fill="#05E682"/>
<path d="M55.8698 43.6492L55.3839 43.0084L58.1327 38.9731L55.8698 43.6492Z" fill="#05E682"/>
<path d="M54.3568 45.4116L55.0338 44.9775L53.8444 40.242L54.3568 45.4116Z" fill="#05E682"/>
<path d="M54.3568 45.4116L55.0338 44.9775L53.8444 40.242L54.3568 45.4116Z" fill="#05E682"/>
<circle cx="49.5" cy="39.5" r="4.5" fill="#F25656"/>
<path fill-rule="evenodd" clip-rule="evenodd" d="M46 39.5C46 37.7368 47.3039 36.2781 49 36.0354V42.9646C47.3039 42.7219 46 41.2632 46 39.5ZM53 39.5C53 37.7368 51.6961 36.2781 50 36.0354V42.9646C51.6961 42.7219 53 41.2632 53 39.5Z" fill="#9F1F1F"/>
<path fill-rule="evenodd" clip-rule="evenodd" d="M47.5 38C47.7761 38 48 37.7761 48 37.5C48 37.2239 47.7761 37 47.5 37C47.2239 37 47 37.2239 47 37.5C47 37.7761 47.2239 38 47.5 38ZM47.5 40C47.7761 40 48 39.7761 48 39.5C48 39.2239 47.7761 39 47.5 39C47.2239 39 47 39.2239 47 39.5C47 39.7761 47.2239 40 47.5 40ZM48 41.5C48 41.7761 47.7761 42 47.5 42C47.2239 42 47 41.7761 47 41.5C47 41.2239 47.2239 41 47.5 41C47.7761 41 48 41.2239 48 41.5ZM51.5 42C51.7761 42 52 41.7761 52 41.5C52 41.2239 51.7761 41 51.5 41C51.2239 41 51 41.2239 51 41.5C51 41.7761 51.2239 42 51.5 42ZM52 39.5C52 39.7761 51.7761 40 51.5 40C51.2239 40 51 39.7761 51 39.5C51 39.2239 51.2239 39 51.5 39C51.7761 39 52 39.2239 52 39.5ZM51.5 38C51.7761 38 52 37.7761 52 37.5C52 37.2239 51.7761 37 51.5 37C51.2239 37 51 37.2239 51 37.5C51 37.7761 51.2239 38 51.5 38Z" fill="#F29856"/>
<circle cx="55.5" cy="46.5" r="4.5" fill="#F25656"/>
<path fill-rule="evenodd" clip-rule="evenodd" d="M52 46.5C52 44.7368 53.3039 43.2781 55 43.0354V49.9646C53.3039 49.7219 52 48.2632 52 46.5ZM59 46.5C59 44.7368 57.6961 43.2781 56 43.0354V49.9646C57.6961 49.7219 59 48.2632 59 46.5Z" fill="#9F1F1F"/>
<path fill-rule="evenodd" clip-rule="evenodd" d="M53.5 45C53.7761 45 54 44.7761 54 44.5C54 44.2239 53.7761 44 53.5 44C53.2239 44 53 44.2239 53 44.5C53 44.7761 53.2239 45 53.5 45ZM53.5 47C53.7761 47 54 46.7761 54 46.5C54 46.2239 53.7761 46 53.5 46C53.2239 46 53 46.2239 53 46.5C53 46.7761 53.2239 47 53.5 47ZM54 48.5C54 48.7761 53.7761 49 53.5 49C53.2239 49 53 48.7761 53 48.5C53 48.2239 53.2239 48 53.5 48C53.7761 48 54 48.2239 54 48.5ZM57.5 49C57.7761 49 58 48.7761 58 48.5C58 48.2239 57.7761 48 57.5 48C57.2239 48 57 48.2239 57 48.5C57 48.7761 57.2239 49 57.5 49ZM58 46.5C58 46.7761 57.7761 47 57.5 47C57.2239 47 57 46.7761 57 46.5C57 46.2239 57.2239 46 57.5 46C57.7761 46 58 46.2239 58 46.5ZM57.5 45C57.7761 45 58 44.7761 58 44.5C58 44.2239 57.7761 44 57.5 44C57.2239 44 57 44.2239 57 44.5C57 44.7761 57.2239 45 57.5 45Z" fill="#F29856"/>
<path d="M57 55C58.1046 55 59 54.1046 59 53L57 53L57 55Z" fill="#05E682"/>
<path d="M51 56C49.8954 56 49 55.1046 49 54L51 54L51 56Z" fill="#05E682"/>
<path d="M51 53C50.4477 53 50 52.5523 50 52L51 52L51 53Z" fill="#FBD03B"/>
<path d="M49 46C48.4477 46 48 45.5523 48 45L49 45L49 46Z" fill="#FBD03B"/>
<path d="M54 39C54.5523 39 55 38.5523 55 38L54 38L54 39Z" fill="#FBD03B"/>
<path d="M56 36C56.5523 36 57 36.4477 57 37L56 37L56 36Z" fill="#FBD03B"/>
<path d="M59 51C58.4477 51 58 51.4477 58 52L59 52L59 51Z" fill="#FBD03B"/>
<path d="M59 43C57.8954 43 57 42.1046 57 41L59 41L59 43Z" fill="#05E682"/>
<path d="M47 38C45.8954 38 45 38.8954 45 40L47 40L47 38Z" fill="#05E682"/>
<path fill-rule="evenodd" clip-rule="evenodd" d="M48 49C50.7614 49 53 46.7614 53 44C53 41.2386 50.7614 39 48 39C45.2386 39 43 41.2386 43 44C43 46.7614 45.2386 49 48 49ZM48 48C50.2091 48 52 46.2091 52 44C52 41.7909 50.2091 40 48 40C45.7909 40 44 41.7909 44 44C44 46.2091 45.7909 48 48 48Z" fill="#FFDB5D"/>
<circle cx="46.5" cy="49.5" r="4.5" fill="#F25656"/>
<path fill-rule="evenodd" clip-rule="evenodd" d="M43 49.5C43 47.7368 44.3039 46.2781 46 46.0354V52.9646C44.3039 52.7219 43 51.2632 43 49.5ZM50 49.5C50 47.7368 48.6961 46.2781 47 46.0354V52.9646C48.6961 52.7219 50 51.2632 50 49.5Z" fill="#9F1F1F"/>
<path fill-rule="evenodd" clip-rule="evenodd" d="M44.5 48C44.7761 48 45 47.7761 45 47.5C45 47.2239 44.7761 47 44.5 47C44.2239 47 44 47.2239 44 47.5C44 47.7761 44.2239 48 44.5 48ZM44.5 50C44.7761 50 45 49.7761 45 49.5C45 49.2239 44.7761 49 44.5 49C44.2239 49 44 49.2239 44 49.5C44 49.7761 44.2239 50 44.5 50ZM45 51.5C45 51.7761 44.7761 52 44.5 52C44.2239 52 44 51.7761 44 51.5C44 51.2239 44.2239 51 44.5 51C44.7761 51 45 51.2239 45 51.5ZM48.5 52C48.7761 52 49 51.7761 49 51.5C49 51.2239 48.7761 51 48.5 51C48.2239 51 48 51.2239 48 51.5C48 51.7761 48.2239 52 48.5 52ZM49 49.5C49 49.7761 48.7761 50 48.5 50C48.2239 50 48 49.7761 48 49.5C48 49.2239 48.2239 49 48.5 49C48.7761 49 49 49.2239 49 49.5ZM48.5 48C48.7761 48 49 47.7761 49 47.5C49 47.2239 48.7761 47 48.5 47C48.2239 47 48 47.2239 48 47.5C48 47.7761 48.2239 48 48.5 48Z" fill="#F29856"/>
<path fill-rule="evenodd" clip-rule="evenodd" d="M56 57C58.7614 57 61 54.7614 61 52C61 49.2386 58.7614 47 56 47C53.2386 47 51 49.2386 51 52C51 54.7614 53.2386 57 56 57ZM56 56C58.2091 56 60 54.2091 60 52C60 49.7909 58.2091 48 56 48C53.7909 48 52 49.7909 52 52C52 54.2091 53.7909 56 56 56Z" fill="#FFDB5D"/>
<path fill-rule="evenodd" clip-rule="evenodd" d="M60 47C62.7614 47 65 44.7614 65 42C65 39.2386 62.7614 37 60 37C57.2386 37 55 39.2386 55 42C55 44.7614 57.2386 47 60 47ZM60 46C62.2091 46 64 44.2091 64 42C64 39.7909 62.2091 38 60 38C57.7909 38 56 39.7909 56 42C56 44.2091 57.7909 46 60 46Z" fill="#FFDB5D"/>
<circle cx="62.5" cy="46.5" r="4.5" fill="#F25656"/>
<path fill-rule="evenodd" clip-rule="evenodd" d="M59 46.5C59 44.7368 60.3039 43.2781 62 43.0354V49.9646C60.3039 49.7219 59 48.2632 59 46.5ZM66 46.5C66 44.7368 64.6961 43.2781 63 43.0354V49.9646C64.6961 49.7219 66 48.2632 66 46.5Z" fill="#9F1F1F"/>
<circle cx="54.5" cy="53.5" r="2.5" fill="#F25656"/>
<path fill-rule="evenodd" clip-rule="evenodd" d="M52.5556 53.5C52.5556 52.5204 53.2799 51.71 54.2222 51.5752V55.4248C53.2799 55.29 52.5556 54.4796 52.5556 53.5ZM56.4444 53.5C56.4444 52.5204 55.7201 51.71 54.7778 51.5753V55.4248C55.7201 55.29 56.4444 54.4796 56.4444 53.5Z" fill="#9F1F1F"/>
<path fill-rule="evenodd" clip-rule="evenodd" d="M55.6111 52.6667C55.7645 52.6667 55.8889 52.5423 55.8889 52.3889C55.8889 52.2355 55.7645 52.1111 55.6111 52.1111C55.4577 52.1111 55.3333 52.2355 55.3333 52.3889C55.3333 52.5423 55.4577 52.6667 55.6111 52.6667ZM53.3889 52.6667C53.5423 52.6667 53.6667 52.5423 53.6667 52.3889C53.6667 52.2355 53.5423 52.1111 53.3889 52.1111C53.2355 52.1111 53.1111 52.2355 53.1111 52.3889C53.1111 52.5423 53.2355 52.6667 53.3889 52.6667ZM53.3889 53.7778C53.5423 53.7778 53.6667 53.6534 53.6667 53.5C53.6667 53.3466 53.5423 53.2222 53.3889 53.2222C53.2355 53.2222 53.1111 53.3466 53.1111 53.5C53.1111 53.6534 53.2355 53.7778 53.3889 53.7778ZM53.6667 54.6111C53.6667 54.7645 53.5423 54.8889 53.3889 54.8889C53.2355 54.8889 53.1111 54.7645 53.1111 54.6111C53.1111 54.4577 53.2355 54.3333 53.3889 54.3333C53.5423 54.3333 53.6667 54.4577 53.6667 54.6111ZM55.6111 54.8889C55.7645 54.8889 55.8889 54.7645 55.8889 54.6111C55.8889 54.4577 55.7645 54.3333 55.6111 54.3333C55.4577 54.3333 55.3333 54.4577 55.3333 54.6111C55.3333 54.7645 55.4577 54.8889 55.6111 54.8889ZM55.8889 53.5C55.8889 53.6534 55.7645 53.7778 55.6111 53.7778C55.4577 53.7778 55.3333 53.6534 55.3333 53.5C55.3333 53.3466 55.4577 53.2222 55.6111 53.2222C55.7645 53.2222 55.8889 53.3466 55.8889 53.5Z" fill="#F29856"/>
<circle cx="44" cy="17" r="14" fill="#E0D7D1"/>
<circle cx="44" cy="16" r="14" fill="#FBFBFB"/>
<ellipse cx="44" cy="16.5" rx="12" ry="11.5" fill="#F1A40F"/>
<ellipse cx="44" cy="15.5" rx="12" ry="11.5" fill="#FFC01D"/>
<path d="M41.364 22.2426L37.1213 18C35.9497 19.1716 35.9497 21.0711 37.1213 22.2426C38.2929 23.4142 40.1924 23.4142 41.364 22.2426Z" fill="#FBD03B"/>
<path d="M39 17V11C37.3431 11 36 12.3431 36 14C36 15.6569 37.3431 17 39 17Z" fill="#FBD03B"/>
<path d="M48.1213 25.364L52.364 21.1213C51.1924 19.9497 49.2929 19.9497 48.1213 21.1213C46.9497 22.2929 46.9497 24.1924 48.1213 25.364Z" fill="#FBD03B"/>
<path d="M49 15.1213L53.2426 19.364C54.4142 18.1924 54.4142 16.2929 53.2426 15.1213C52.0711 13.9498 50.1716 13.9498 49 15.1213Z" fill="#FBD03B"/>
<path d="M47 8L47 14C48.6569 14 50 12.6569 50 11C50 9.34315 48.6569 8 47 8Z" fill="#FBD03B"/>
<path d="M42 14L42 20C43.6569 20 45 18.6569 45 17C45 15.3431 43.6569 14 42 14Z" fill="#FBD03B"/>
<path d="M43.5607 5.81802L39.318 10.0607C40.4896 11.2322 42.3891 11.2322 43.5607 10.0607C44.7322 8.88908 44.7322 6.98959 43.5607 5.81802Z" fill="#FBD03B"/>
<path d="M44.7574 10L42 12.7574C42.7614 13.5188 43.9959 13.5188 44.7574 12.7574C45.5188 11.9959 45.5188 10.7614 44.7574 10Z" fill="#F1A40F"/>
<path d="M46 19.9497L49.8995 19.9497C49.8995 18.8729 49.0266 18 47.9497 18C46.8729 18 46 18.8729 46 19.9497Z" fill="#F1A40F"/>
<path d="M41.8336 23.4517L44.8009 25.9817C45.4995 25.1623 45.4016 23.9317 44.5823 23.233C43.7629 22.5344 42.5322 22.6323 41.8336 23.4517Z" fill="#F1A40F"/>
<path d="M37.2468 6.83088L35.297 10.2079C36.2296 10.7463 37.422 10.4268 37.9604 9.49428C38.4988 8.56173 38.1793 7.36929 37.2468 6.83088Z" fill="#F1A40F"/>
<path d="M51 9.50464L52.0093 13.2712C53.0494 12.9925 53.6666 11.9234 53.3879 10.8833C53.1092 9.84319 52.0401 9.22594 51 9.50464Z" fill="#F1A40F"/>
<path d="M35.8926 15.5046L34.8833 19.2712C33.8432 18.9925 33.2259 17.9234 33.5046 16.8833C33.7833 15.8432 34.8524 15.2259 35.8926 15.5046Z" fill="#F1A40F"/>
<path d="M47 16C47.5523 16 48 15.5523 48 15L47 15L47 16Z" fill="#0BCD77"/>
<path d="M39 19C39.5523 19 40 18.5523 40 18L39 18L39 19Z" fill="#0BCD77"/>
<path d="M47 8C46.4477 8 46 7.55228 46 7L47 7L47 8Z" fill="#0BCD77"/>
<path d="M40 7C39.4477 7 39 7.44772 39 8L40 8L40 7Z" fill="#0BCD77"/>
<path d="M35 13C34.4477 13 34 13.4477 34 14L35 14L35 13Z" fill="#0BCD77"/>
<path d="M47 24C46.4477 24 46 23.5523 46 23L47 23L47 24Z" fill="#0BCD77"/>
<path d="M52 21C52.5523 21 53 20.5523 53 20L52 20L52 21Z" fill="#0BCD77"/>
<path d="M54 14C53.4477 14 53 14.4477 53 15L54 15L54 14Z" fill="#0BCD77"/>
<path d="M40 23C39.4477 23 39 23.4477 39 24L40 24L40 23Z" fill="#0BCD77"/>
</g>
<path fill-rule="evenodd" clip-rule="evenodd" d="M18 56.2541L18 54.6364C18 46.0006 24.9396 39 33.5 39C41.9337 39 48.7942 45.7949 48.9955 54.2539C44.2827 57.8585 38.3914 60 32 60C26.9 60 22.1184 58.6365 18 56.2541Z" fill="#F25656"/>
<path d="M30 35H36V41C36 42.6569 34.6569 44 33 44V44C31.3431 44 30 42.6569 30 41V35Z" fill="#FFB38D"/>
<path d="M25 26C25 21.5817 28.5817 18 33 18C37.4183 18 41 21.5817 41 26V32C41 36.4183 37.4183 40 33 40C28.5817 40 25 36.4183 25 32V26Z" fill="#FFC6A9"/>
<path d="M40 27.4545C40 26.6512 40.6716 26 41.5 26C42.3284 26 43 26.6512 43 27.4545V28.5455C43 29.3488 42.3284 30 41.5 30C40.6716 30 40 29.3488 40 28.5455V27.4545Z" fill="#FFC6A9"/>
<path d="M23 27.4545C23 26.6512 23.6716 26 24.5 26C25.3284 26 26 26.6512 26 27.4545V28.5455C26 29.3488 25.3284 30 24.5 30C23.6716 30 23 29.3488 23 28.5455V27.4545Z" fill="#FFC6A9"/>
<path d="M29 26C28.4477 26 28 26.4477 28 27H30C30 26.4477 29.5523 26 29 26Z" fill="#845842"/>
<path d="M37 26C36.4477 26 36 26.4477 36 27H38C38 26.4477 37.5523 26 37 26Z" fill="#845842"/>
<path d="M33 37C35.4212 37 37.4405 35.279 37.9013 32.9936C38.0104 32.4522 37.5523 32 37 32L29 32C28.4477 32 27.9896 32.4522 28.0987 32.9936C28.5595 35.279 30.5788 37 33 37Z" fill="#9F1F1F"/>
<path fill-rule="evenodd" clip-rule="evenodd" d="M40.9381 25H25.0619C25.554 21.0537 28.9204 18 33 18C37.0796 18 40.446 21.0537 40.9381 25Z" fill="#FFB38D"/>
<path d="M33 12C28.0908 12 24.1111 15.5817 24.1111 20V22H41.8889V20C41.8889 15.5817 37.9092 12 33 12Z" fill="#845842"/>
<path d="M23 21C23 20.4477 23.4975 20 24.1111 20H41.8889C42.5025 20 43 20.4477 43 21V23C43 23.5523 42.5025 24 41.8889 24H24.1111C23.4975 24 23 23.5523 23 23V21Z" fill="#845842"/>
<rect x="30" y="30" width="1" height="3" rx="0.5" transform="rotate(90 30 30)" fill="#F25656" fill-opacity="0.5"/>
<rect x="31" y="25" width="4" height="1" fill="#3D3B38"/>
<rect x="39" y="30" width="1" height="3" rx="0.5" transform="rotate(90 39 30)" fill="#F25656" fill-opacity="0.5"/>
<path d="M32.0496 46.9048C32.3502 45.986 33.6498 45.986 33.9504 46.9048L35.1246 50.4934H38.9049C39.8753 50.4934 40.2769 51.7366 39.49 52.3044L36.4377 54.5066L37.6073 58.0812C37.9083 59.0012 36.8568 59.7695 36.0718 59.2031L33 56.9868L29.9282 59.2031C29.1432 59.7695 28.0917 59.0012 28.3927 58.0812L29.5623 54.5066L26.51 52.3044C25.7231 51.7366 26.1247 50.4934 27.0951 50.4934H30.8754L32.0496 46.9048Z" fill="#FBD03B"/>
<path fill-rule="evenodd" clip-rule="evenodd" d="M28 30C30.2091 30 32 28.2091 32 26C32 23.7909 30.2091 22 28 22C25.7909 22 24 23.7909 24 26C24 28.2091 25.7909 30 28 30ZM28 29C29.6569 29 31 27.6569 31 26C31 24.3431 29.6569 23 28 23C26.3431 23 25 24.3431 25 26C25 27.6569 26.3431 29 28 29Z" fill="#3D3B38"/>
<path fill-rule="evenodd" clip-rule="evenodd" d="M38 30C40.2091 30 42 28.2091 42 26C42 23.7909 40.2091 22 38 22C35.7909 22 34 23.7909 34 26C34 28.2091 35.7909 30 38 30ZM38 29C39.6569 29 41 27.6569 41 26C41 24.3431 39.6569 23 38 23C36.3431 23 35 24.3431 35 26C35 27.6569 36.3431 29 38 29Z" fill="#3D3B38"/>
<path fill-rule="evenodd" clip-rule="evenodd" d="M36.6668 35.3992C35.7537 36.3838 34.4488 37 33 37C31.5512 37 30.2463 36.3838 29.3332 35.3992C29.9506 33.9869 31.36 33 33 33C34.64 33 36.0494 33.9869 36.6668 35.3992Z" fill="#F25656"/>
<defs>
<clipPath id="clip0_71_584">
<rect x="4" y="4" width="56" height="56" rx="28" fill="white"/>
</clipPath>
</defs>
</svg>
